<svg width="64" height="64" viewBox="0 0 64 64" fill="none" xmlns="http://www.w3.org/2000/svg">
<path fill-rule="evenodd" clip-rule="evenodd" d="M19.2001 21.2C19.2001 20.0954 20.0955 19.2 21.2001 19.2L24.5921 19.2C25.6966 19.2 26.5921 20.0954 26.5921 21.2L26.5921 24.592C26.5921 25.6966 25.6966 26.592 24.5921 26.592L21.2001 26.592C20.0955 26.592 19.2001 25.6966 19.2001 24.592L19.2001 21.2ZM38.2081 21.2C38.2081 20.0954 39.1035 19.2 40.2081 19.2L43.6001 19.2C44.7046 19.2 45.6001 20.0954 45.6001 21.2L45.6001 24.592C45.6001 25.6966 44.7046 26.592 43.6001 26.592L40.2081 26.592C39.1035 26.592 38.2081 25.6966 38.2081 24.592L38.2081 21.2ZM30.704 19.2C29.5995 19.2 28.704 20.0954 28.704 21.2L28.704 24.592C28.704 25.6966 29.5995 26.592 30.704 26.592L34.096 26.592C35.2006 26.592 36.096 25.6966 36.096 24.592L36.096 21.2C36.096 20.0954 35.2006 19.2 34.096 19.2L30.704 19.2ZM38.2081 30.704C38.2081 29.5994 39.1035 28.704 40.2081 28.704L43.6001 28.704C44.7046 28.704 45.6001 29.5994 45.6001 30.704L45.6001 34.096C45.6001 35.2006 44.7046 36.096 43.6001 36.096L40.2081 36.096C39.1035 36.096 38.2081 35.2006 38.2081 34.096L38.2081 30.704ZM21.2001 28.704C20.0955 28.704 19.2001 29.5994 19.2001 30.704L19.2001 34.096C19.2001 35.2006 20.0955 36.096 21.2001 36.096L24.5921 36.096C25.6966 36.096 26.5921 35.2006 26.5921 34.096L26.5921 30.704C26.5921 29.5994 25.6966 28.704 24.5921 28.704L21.2001 28.704ZM28.704 30.704C28.704 29.5994 29.5995 28.704 30.704 28.704L34.096 28.704C35.2006 28.704 36.096 29.5994 36.096 30.704L36.096 34.096C36.096 35.2006 35.2006 36.096 34.096 36.096L30.704 36.096C29.5995 36.096 28.704 35.2006 28.704 34.096L28.704 30.704ZM40.2081 38.208C39.1035 38.208 38.2081 39.1034 38.2081 40.208L38.2081 43.6C38.2081 44.7046 39.1035 45.6 40.2081 45.6L43.6001 45.6C44.7046 45.6 45.6001 44.7046 45.6001 43.6L45.6001 40.208C45.6001 39.1034 44.7046 38.208 43.6001 38.208L40.2081 38.208ZM19.2001 40.208C19.2001 39.1034 20.0955 38.208 21.2001 38.208L24.5921 38.208C25.6966 38.208 26.5921 39.1034 26.5921 40.208L26.5921 43.6C26.5921 44.7046 25.6966 45.6 24.5921 45.6L21.2001 45.6C20.0955 45.6 19.2001 44.7046 19.2001 43.6L19.2001 40.208ZM30.704 38.208C29.5995 38.208 28.704 39.1034 28.704 40.208L28.704 43.6C28.704 44.7046 29.5995 45.6 30.704 45.6L34.096 45.6C35.2006 45.6 36.096 44.7046 36.096 43.6L36.096 40.208C36.096 39.1034 35.2006 38.208 34.096 38.208L30.704 38.208Z" fill="black"/>
</svg>
