<svg width="64" height="64" viewBox="0 0 64 64" fill="none" xmlns="http://www.w3.org/2000/svg">
<path d="M7.95703 23.0781H10.4375L16.3945 38H13.8945L12.8008 35.1582H5.53516L4.44141 38H2.01953L7.95703 23.0781ZM11.9414 32.9219L9.1582 25.9785L6.375 32.9219H11.9414ZM24.3438 38.2637C23.3867 38.2637 22.5599 38.1855 21.8633 38.0293C21.1732 37.8796 20.5905 37.6712 20.1152 37.4043C19.64 37.1374 19.2559 36.8216 18.9629 36.457C18.6764 36.0859 18.4551 35.6888 18.2988 35.2656C18.1426 34.8359 18.0384 34.3867 17.9863 33.918C17.9342 33.4427 17.9082 32.9642 17.9082 32.4824V23.1758H20.3203V32.1602C20.3203 32.7461 20.3724 33.2767 20.4766 33.752C20.5872 34.2207 20.7891 34.6243 21.082 34.9629C21.375 35.2949 21.7852 35.5521 22.3125 35.7344C22.8398 35.9102 23.5234 35.998 24.3633 35.998C25.2096 35.998 25.8965 35.9102 26.4238 35.7344C26.9577 35.5586 27.3743 35.3079 27.6738 34.9824C27.9798 34.6504 28.1882 34.2467 28.2988 33.7715C28.4095 33.2962 28.4648 32.7591 28.4648 32.1602V23.1758H30.8281V32.4824C30.8281 32.9642 30.7988 33.4427 30.7402 33.918C30.6882 34.3867 30.5807 34.8359 30.418 35.2656C30.2617 35.6888 30.0339 36.0859 29.7344 36.457C29.4414 36.8216 29.054 37.1374 28.5723 37.4043C28.097 37.6712 27.5111 37.8796 26.8145 38.0293C26.1243 38.1855 25.3008 38.2637 24.3438 38.2637ZM38.084 25.5H32.7422V23.1758H45.8574V25.5H40.5254V38H38.084V25.5ZM53.9238 38.2441C52.7389 38.2441 51.6745 38.1009 50.7305 37.8145C49.7865 37.528 48.9857 37.0755 48.3281 36.457C47.6706 35.8385 47.166 35.0475 46.8145 34.084C46.4629 33.1139 46.2871 31.9453 46.2871 30.5781C46.2871 29.2174 46.4629 28.0553 46.8145 27.0918C47.166 26.1283 47.6706 25.3405 48.3281 24.7285C48.9857 24.11 49.7865 23.6576 50.7305 23.3711C51.6745 23.0846 52.7389 22.9414 53.9238 22.9414C55.1087 22.9414 56.1732 23.0846 57.1172 23.3711C58.0677 23.6576 58.8717 24.11 59.5293 24.7285C60.1934 25.3405 60.7012 26.1283 61.0527 27.0918C61.4108 28.0553 61.5898 29.2174 61.5898 30.5781C61.5898 31.9453 61.4108 33.1139 61.0527 34.084C60.7012 35.0475 60.1934 35.8385 59.5293 36.457C58.8717 37.0755 58.0677 37.528 57.1172 37.8145C56.1732 38.1009 55.1087 38.2441 53.9238 38.2441ZM53.9238 35.9785C54.8548 35.9785 55.6491 35.8581 56.3066 35.6172C56.9707 35.3763 57.5111 35.028 57.9277 34.5723C58.3509 34.1165 58.6602 33.5566 58.8555 32.8926C59.0508 32.2285 59.1484 31.4701 59.1484 30.6172C59.1484 29.7708 59.0508 29.0189 58.8555 28.3613C58.6602 27.6973 58.3509 27.1374 57.9277 26.6816C57.5111 26.2259 56.9707 25.8776 56.3066 25.6367C55.6491 25.3958 54.8548 25.2754 53.9238 25.2754C52.9993 25.2754 52.2083 25.3958 51.5508 25.6367C50.8932 25.8776 50.3561 26.2259 49.9395 26.6816C49.5228 27.1374 49.2168 27.6973 49.0215 28.3613C48.8262 29.0189 48.7285 29.7708 48.7285 30.6172C48.7285 31.4701 48.8262 32.2285 49.0215 32.8926C49.2168 33.5566 49.5228 34.1165 49.9395 34.5723C50.3561 35.028 50.8932 35.3763 51.5508 35.6172C52.2083 35.8581 52.9993 35.9785 53.9238 35.9785Z" fill="black"/>
</svg>
