<svg width="64" height="64" viewBox="0 0 64 64" fill="none" xmlns="http://www.w3.org/2000/svg">
<path fill-rule="evenodd" clip-rule="evenodd" d="M33.2701 13H30.7292V18.0669H33.2701V13ZM31.9997 23.1333C27.0875 23.1333 23.1061 27.1041 23.1061 32C23.1061 36.8964 27.0875 40.8672 31.9997 40.8672C36.9096 40.8672 40.8933 36.8964 40.8933 32C40.8933 27.1036 36.9096 23.1333 31.9997 23.1333ZM30.7292 45.9331H33.2701V51H30.7292V45.9331ZM18.0244 30.7334H12.9421V33.2666H18.0244V30.7334ZM45.9757 30.7334H51.0579V33.2666H45.9757V30.7334ZM43.1514 22.6722L41.355 20.882L44.5761 17.6697L46.3725 19.4608L43.1514 22.6722ZM17.6248 44.5407L19.4222 46.3308L22.6422 43.1194L20.8458 41.3283L17.6248 44.5407ZM22.6437 20.8806L20.8468 22.6722L17.6248 19.4608L19.4222 17.6697L22.6437 20.8806ZM44.5775 46.3308L46.3739 44.5392L43.1514 41.3283L41.355 43.1194L44.5775 46.3308Z" fill="black"/>
</svg>
