<svg width="64" height="64" viewBox="0 0 64 64" fill="none" xmlns="http://www.w3.org/2000/svg">
<path d="M38.5295 16.303V19.8479C37.0245 20.2762 35.7002 21.1834 34.7572 22.4321C33.8143 23.6809 33.3041 25.2029 33.3041 26.7677C33.3041 28.3324 33.8143 29.8545 34.7572 31.1032C35.7002 32.3519 37.0245 33.2592 38.5295 33.6874V47.697C38.5295 48.2174 38.7363 48.7165 39.1042 49.0844C39.4722 49.4524 39.9713 49.6591 40.4917 49.6591C41.0121 49.6591 41.5111 49.4524 41.8791 49.0844C42.2471 48.7165 42.4538 48.2174 42.4538 47.697V33.6874C43.9588 33.2592 45.2831 32.3519 46.2261 31.1032C47.1691 29.8545 47.6792 28.3324 47.6792 26.7677C47.6792 25.2029 47.1691 23.6809 46.2261 22.4321C45.2831 21.1834 43.9588 20.2762 42.4538 19.8479V16.303C42.4538 15.7826 42.2471 15.2836 41.8791 14.9156C41.5111 14.5476 41.0121 14.3409 40.4917 14.3409C39.9713 14.3409 39.4722 14.5476 39.1042 14.9156C38.7363 15.2836 38.5295 15.7826 38.5295 16.303ZM43.7619 26.7677C43.7619 27.4145 43.5701 28.0467 43.2107 28.5845C42.8514 29.1223 42.3407 29.5415 41.7431 29.789C41.1456 30.0365 40.488 30.1012 39.8537 29.9751C39.2193 29.8489 38.6366 29.5374 38.1793 29.0801C37.7219 28.6227 37.4105 28.04 37.2843 27.4057C37.1581 26.7713 37.2229 26.1138 37.4704 25.5162C37.7179 24.9187 38.1371 24.4079 38.6748 24.0486C39.2126 23.6893 39.8449 23.4975 40.4917 23.4975C41.359 23.4975 42.1908 23.842 42.8041 24.4553C43.4173 25.0686 43.7619 25.9004 43.7619 26.7677ZM25.4487 47.697V44.1521C26.9537 43.7238 28.2781 42.8166 29.221 41.5679C30.164 40.3192 30.6741 38.7971 30.6741 37.2323C30.6741 35.6676 30.164 34.1455 29.221 32.8968C28.2781 31.6481 26.9537 30.7408 25.4487 30.3126V16.303C25.4487 15.7826 25.242 15.2836 24.874 14.9156C24.5061 14.5476 24.007 14.3409 23.4866 14.3409C22.9662 14.3409 22.4671 14.5476 22.0992 14.9156C21.7312 15.2836 21.5245 15.7826 21.5245 16.303V30.3126C20.0195 30.7408 18.6951 31.6481 17.7522 32.8968C16.8092 34.1455 16.2991 35.6676 16.2991 37.2323C16.2991 38.7971 16.8092 40.3192 17.7522 41.5679C18.6951 42.8166 20.0195 43.7238 21.5245 44.1521L21.5245 47.697C21.5245 48.2174 21.7312 48.7165 22.0992 49.0844C22.4671 49.4524 22.9662 49.6591 23.4866 49.6591C24.007 49.6591 24.5061 49.4524 24.874 49.0844C25.242 48.7165 25.4487 48.2174 25.4487 47.697ZM20.2164 37.2323C20.2164 36.5856 20.4082 35.9533 20.7675 35.4155C21.1269 34.8777 21.6376 34.4586 22.2351 34.2111C22.8327 33.9636 23.4902 33.8988 24.1246 34.025C24.7589 34.1512 25.3416 34.4626 25.799 34.92C26.2563 35.3773 26.5678 35.96 26.694 36.5944C26.8202 37.2287 26.7554 37.8862 26.5079 38.4838C26.2604 39.0814 25.8412 39.5921 25.3034 39.9514C24.7656 40.3108 24.1334 40.5026 23.4866 40.5026C22.6193 40.5026 21.7875 40.158 21.1742 39.5447C20.5609 38.9314 20.2164 38.0997 20.2164 37.2323Z" fill="black"/>
</svg>
