<svg width="64" height="64" viewBox="0 0 64 64" fill="none" xmlns="http://www.w3.org/2000/svg">
<path fill-rule="evenodd" clip-rule="evenodd" d="M29.1071 18.2933L44.8823 18.2933C46.2003 18.2933 47.1771 19.3412 47.236 20.5714C47.2948 21.8016 46.1121 22.8495 44.8823 22.8495L44.8352 22.8495C44.1169 22.8609 43.3985 22.8571 42.682 22.8533C42.3243 22.8514 41.9671 22.8495 41.6106 22.8495L29.1071 22.8495C28.3178 24.2201 26.8381 25.1429 25.1429 25.1429C23.4476 25.1429 21.968 24.2201 21.1786 22.8495L18.3558 22.8495C17.0377 22.8495 16.061 21.8016 16.0021 20.5714C15.9433 19.3412 17.126 18.2933 18.3558 18.2933L18.4029 18.2933C19.1212 18.2819 19.8395 18.2857 20.5561 18.2895C20.7639 18.2906 20.9716 18.2917 21.1791 18.2925C21.9686 16.9223 23.448 16 25.1429 16C26.8381 16 28.3178 16.9227 29.1071 18.2933Z" fill="black"/>
<path fill-rule="evenodd" clip-rule="evenodd" d="M41.2976 29.7219L44.8823 29.7219C46.2003 29.7219 47.1771 30.7698 47.236 32C47.2948 33.2302 46.1121 34.2781 44.8823 34.2781L44.8352 34.2781C44.1169 34.2895 43.3985 34.2857 42.682 34.2819C42.3243 34.28 41.9671 34.2781 41.6106 34.2781L41.2976 34.2781C40.5082 35.6487 39.0285 36.5714 37.3333 36.5714C35.6381 36.5714 34.1584 35.6487 33.3691 34.2781L18.3558 34.2781C17.0377 34.2781 16.0609 33.2302 16.0021 32C15.9433 30.7698 17.126 29.7219 18.3558 29.7219L18.4029 29.7219C19.1212 29.7105 19.8395 29.7143 20.5561 29.7181C20.9138 29.72 21.271 29.7219 21.6275 29.7219L33.3691 29.7219C34.1584 28.3513 35.6381 27.4286 37.3333 27.4286C39.0285 27.4286 40.5082 28.3513 41.2976 29.7219Z" fill="black"/>
<path fill-rule="evenodd" clip-rule="evenodd" d="M24.5357 41.1505L44.8823 41.1505C46.2003 41.1505 47.1771 42.1984 47.236 43.4286C47.2948 44.6588 46.1121 45.7067 44.8823 45.7067L44.8352 45.7067C44.1169 45.7181 43.3985 45.7143 42.682 45.7105C42.3243 45.7086 41.9671 45.7067 41.6106 45.7067L24.5357 45.7067C23.7463 47.0773 22.2666 48 20.5714 48C18.0467 48 16 45.9533 16 43.4286C16 43.4105 16.0001 43.3925 16.0003 43.3744C15.9992 43.3127 16.0011 43.2515 16.0061 43.1908C16.1298 40.7766 18.1264 38.8571 20.5714 38.8571C22.2666 38.8571 23.7463 39.7799 24.5357 41.1505Z" fill="black"/>
</svg>
