<svg width="64" height="64" viewBox="0 0 64 64" fill="none" xmlns="http://www.w3.org/2000/svg">
<path fill-rule="evenodd" clip-rule="evenodd" d="M21.2724 26.8538L18.6671 22.9459C18.5392 22.7524 18.3743 22.586 18.182 22.4564C17.9896 22.3269 17.7735 22.2366 17.5461 22.1908C17.3187 22.145 17.0846 22.1446 16.857 22.1896C16.6295 22.2345 16.4131 22.3241 16.2202 22.453C16.0267 22.5809 15.8604 22.7457 15.7308 22.9381C15.6012 23.1305 15.5109 23.3466 15.4651 23.5739C15.4193 23.8013 15.4189 24.0355 15.4639 24.2631C15.5089 24.4906 15.5984 24.707 15.7273 24.8998L18.8607 29.5999" fill="black"/>
<path fill-rule="evenodd" clip-rule="evenodd" d="M44.3224 39.8478C43.8555 39.8478 43.4078 39.6623 43.0776 39.3322C42.7475 39.0021 42.562 38.5543 42.562 38.0875C42.562 37.6206 42.7475 37.1728 43.0776 36.8427C43.4078 36.5126 43.8555 36.3271 44.3224 36.3271C44.7893 36.3271 45.237 36.5126 45.5671 36.8427C45.8973 37.1728 46.0827 37.6206 46.0827 38.0875C46.0827 38.5543 45.8973 39.0021 45.5671 39.3322C45.237 39.6623 44.7893 39.8478 44.3224 39.8478ZM21.438 39.8478C20.9711 39.8478 20.5234 39.6623 20.1933 39.3322C19.8631 39.0021 19.6777 38.5543 19.6777 38.0875C19.6777 37.6206 19.8631 37.1728 20.1933 36.8427C20.5234 36.5126 20.9711 36.3271 21.438 36.3271C21.9049 36.3271 22.3526 36.5126 22.6827 36.8427C23.0129 37.1728 23.1983 37.6206 23.1983 38.0875C23.1983 38.5543 23.0129 39.0021 22.6827 39.3322C22.3526 39.6623 21.9049 39.8478 21.438 39.8478ZM45.6778 24.0048C45.0506 22.9744 44.1691 22.1225 43.118 21.5306C42.0669 20.9388 40.8814 20.6269 39.6751 20.6249H30.2397C29.2426 20.6218 28.2562 20.8304 27.3458 21.2371C26.4354 21.6437 25.6217 22.2391 24.9587 22.9838L24.0257 24.0224C22.2654 26.082 20.7515 27.543 18.7447 27.8071L14.7135 28.1416C13.6717 28.2866 12.7149 28.7957 12.0125 29.5786C11.3101 30.3615 10.9075 31.3678 10.876 32.4192V35.4117C10.876 36.5883 11.3433 37.7166 12.1753 38.5485C13.0072 39.3804 14.1355 39.8478 15.312 39.8478H16.4738C16.837 40.875 17.5091 41.7648 18.3978 42.3951C19.2865 43.0254 20.3484 43.3654 21.438 43.3685C22.5276 43.3654 23.5895 43.0254 24.4782 42.3951C25.367 41.7648 26.039 40.875 26.4022 39.8478H39.3582C39.7214 40.875 40.3934 41.7648 41.2822 42.3951C42.1709 43.0254 43.2328 43.3654 44.3224 43.3685C45.4149 43.369 46.4808 43.0307 47.373 42.4002C48.2653 41.7696 48.94 40.8779 49.3041 39.8478C50.3591 39.7383 51.3353 39.2392 52.0417 38.4481C52.7482 37.6569 53.1341 36.6308 53.1241 35.5702V30.8877C53.1222 29.7596 52.6922 28.6743 51.9211 27.8509C51.15 27.0275 50.0952 26.5274 48.9697 26.4516L45.6778 24.0048ZM48.9697 26.4516C48.7808 26.4381 48.5959 26.3903 48.424 26.3108L48.9697 26.4516Z" fill="black"/>
</svg>
