<svg width="64" height="64" viewBox="0 0 64 64" fill="none" xmlns="http://www.w3.org/2000/svg">
<path fill-rule="evenodd" clip-rule="evenodd" d="M34.9888 49.23H23.0064C19.9563 49.23 18.562 48.3899 16.928 45.9556C13.7472 41.3024 15.8496 36.4877 20.4901 37.4032C24.7864 38.0734 29.1554 38.1568 33.4747 37.6509C33.4747 37.6509 39.3243 24.0684 41.0998 18.532C42.8754 12.9956 49.5638 14.0512 48.4745 18.532C46.479 27.1684 44.5431 34.4127 42.6142 41.6314C42.3635 42.5696 42.1129 43.5073 41.8624 44.4476C41.4035 45.8785 40.4827 47.1211 39.2411 47.9849C37.9996 48.8487 36.5058 49.2861 34.9888 49.23ZM22.3309 25.0806L23.2024 26.7286C23.3004 26.9333 23.2024 27.0841 22.9736 27.0841H21.7863C21.7457 28.4115 21.2761 29.6912 20.4464 30.7355C19.2482 31.888 19.2482 32.9759 19.2482 35.3348V35.518H17.6033V35.3348C17.6033 32.8144 17.6033 31.2095 19.3026 29.583C19.8191 28.847 20.1103 27.9794 20.1414 27.0841H18.8342C18.6164 27.0841 18.5074 26.9333 18.6164 26.7286L19.4769 25.0806C19.575 24.8867 19.7492 24.5636 19.8582 24.3697L20.7187 22.7217C20.8168 22.5171 20.9911 22.5171 21.0891 22.7217L21.9605 24.3697L22.3309 25.0806ZM29.4005 26.7286L28.529 25.0806L28.1587 24.3697L27.2872 22.7217C27.1892 22.5171 27.0149 22.5171 26.9169 22.7217L26.0563 24.3697C25.9474 24.5636 25.7731 24.8867 25.675 25.0806L24.8145 26.7286C24.7056 26.9333 24.8145 27.0841 25.0324 27.0841H26.3395C26.3085 27.9794 26.0173 28.847 25.5008 29.583C23.8014 31.2095 23.8014 32.8467 23.8014 35.3348V35.518H25.4354V35.3348C25.4354 32.9759 25.4354 31.888 26.6336 30.7355C27.4714 29.6948 27.9453 28.4136 27.9844 27.0841H29.1717C29.4005 27.0841 29.4985 26.9333 29.4005 26.7286ZM34.6945 25.0806L35.5986 26.7286C35.6966 26.9333 35.5986 27.0841 35.3481 27.0841H34.1607C34.1201 28.4115 33.6505 29.6912 32.8208 30.7355C31.6117 31.888 31.6117 32.9759 31.6117 35.3348V35.518H29.9777V35.3348C29.9777 32.8144 29.9777 31.2095 31.6771 29.583C32.1936 28.847 32.4848 27.9794 32.5158 27.0841H31.2305C31.0126 27.0841 30.9037 26.9333 31.0126 26.7286L31.8731 25.0806L32.2544 24.3697L33.115 22.7217C33.2239 22.5171 33.3873 22.5171 33.4962 22.7217L34.3241 24.3697L34.6945 25.0806Z" fill="black"/>
</svg>
