<svg width="64" height="64" viewBox="0 0 64 64" fill="none" xmlns="http://www.w3.org/2000/svg">
<mask id="path-1-outside-1_45_1732" maskUnits="userSpaceOnUse" x="15.7838" y="14.7836" width="33" height="35" fill="black">
<rect fill="white" x="15.7838" y="14.7836" width="33" height="35"/>
<path fill-rule="evenodd" clip-rule="evenodd" d="M47.2162 16.7836H42.1442V47.2151H47.2162V16.7836ZM16.7838 16.7849L37.0714 32.0006L16.7838 47.2164V16.7849Z"/>
</mask>
<path fill-rule="evenodd" clip-rule="evenodd" d="M47.2162 16.7836H42.1442V47.2151H47.2162V16.7836ZM16.7838 16.7849L37.0714 32.0006L16.7838 47.2164V16.7849Z" fill="black"/>
<path d="M42.1442 16.7836V15.7836H41.1442V16.7836H42.1442ZM47.2162 16.7836H48.2162V15.7836H47.2162V16.7836ZM42.1442 47.2151H41.1442V48.2151H42.1442V47.2151ZM47.2162 47.2151V48.2151H48.2162V47.2151H47.2162ZM37.0714 32.0006L37.6714 32.8006L38.7381 32.0006L37.6714 31.2006L37.0714 32.0006ZM16.7838 16.7849L17.3838 15.9849L15.7838 14.7849V16.7849H16.7838ZM16.7838 47.2164H15.7838V49.2164L17.3838 48.0164L16.7838 47.2164ZM42.1442 17.7836H47.2162V15.7836H42.1442V17.7836ZM43.1442 47.2151V16.7836H41.1442V47.2151H43.1442ZM47.2162 46.2151H42.1442V48.2151H47.2162V46.2151ZM46.2162 16.7836V47.2151H48.2162V16.7836H46.2162ZM37.6714 31.2006L17.3838 15.9849L16.1838 17.5849L36.4714 32.8006L37.6714 31.2006ZM17.3838 48.0164L37.6714 32.8006L36.4714 31.2006L16.1838 46.4164L17.3838 48.0164ZM15.7838 16.7849V47.2164H17.7838V16.7849H15.7838Z" fill="black" mask="url(#path-1-outside-1_45_1732)"/>
</svg>
