<svg width="64" height="64" viewBox="0 0 64 64" fill="none" xmlns="http://www.w3.org/2000/svg">
<path d="M21.6822 34.7286C19.6912 31.0537 17.7366 31.4345 16.219 32.3109C14.4648 33.4774 13.791 34.6802 15.005 37.7507C17.7609 44.49 21.9918 52.5168 26.5383 57.6967H42.9277C48.6883 53.4657 53.3259 33.2417 45.3558 32.3109C44.6274 32.3109 43.4558 32.4257 42.9277 32.9153C42.9369 32.5159 42.8646 32.1189 42.7153 31.7481C42.566 31.3773 42.3428 31.0406 42.0591 30.7581C41.7754 30.4756 41.4372 30.2534 41.0648 30.1047C40.6925 29.956 40.2937 29.8841 39.8926 29.8932C38.8364 29.8932 38.0716 30.4976 37.4646 31.7064C37.4827 31.3048 37.4166 30.9038 37.2705 30.5289C37.1243 30.1541 36.9014 29.8137 36.6159 29.5294C36.3304 29.2451 35.9885 29.0231 35.6121 28.8776C35.2356 28.7321 34.8329 28.6663 34.4295 28.6843C33.808 28.6934 33.2 28.866 32.667 29.1844C32.134 29.5028 31.695 29.9559 31.3944 30.4976V17.8047C31.3944 16.8429 31.0107 15.9204 30.3277 15.2403C29.6447 14.5602 28.7183 14.1781 27.7523 14.1781C26.7864 14.1781 25.86 14.5602 25.177 15.2403C24.494 15.9204 24.1102 16.8429 24.1102 17.8047V39.564L21.6822 34.7286Z" fill="black"/>
<path d="M15.7019 17.9068C15.6989 20.4065 16.5134 22.8387 18.0211 24.8326L20.1157 23.2642C19.1224 21.9405 18.5151 20.3674 18.3614 18.7195C18.2077 17.0716 18.5136 15.4134 19.245 13.9288C19.9765 12.4441 21.105 11.1912 22.5052 10.3089C23.9055 9.42668 25.5229 8.94962 27.1778 8.93068C28.8327 8.91174 30.4605 9.35167 31.8806 10.2016C33.3007 11.0516 34.4576 12.2784 35.2228 13.7459C35.9881 15.2134 36.3318 16.8642 36.2159 18.5152C36.0999 20.1662 35.5288 21.7527 34.566 23.0989L36.7014 24.624C37.7634 23.1398 38.4597 21.4256 38.7333 19.6212C39.007 17.8168 38.8504 15.9732 38.2762 14.2409C37.702 12.5085 36.7265 10.9364 35.4293 9.65264C34.1321 8.36891 32.5498 7.40993 30.8115 6.8539C29.0732 6.29787 27.2282 6.16052 25.4267 6.45307C23.6253 6.74561 21.9185 7.45975 20.4455 8.53727C18.9725 9.61479 17.775 11.0252 16.9506 12.6534C16.1263 14.2817 15.6984 16.0817 15.7019 17.9068Z" fill="black"/>
</svg>
