<svg width="64" height="64" viewBox="0 0 64 64" fill="none" xmlns="http://www.w3.org/2000/svg">
<mask id="path-1-outside-1_362_6071" maskUnits="userSpaceOnUse" x="15.2162" y="14.7836" width="33" height="35" fill="black">
<rect fill="white" x="15.2162" y="14.7836" width="33" height="35"/>
<path fill-rule="evenodd" clip-rule="evenodd" d="M16.7838 16.7836H21.8558V47.2151H16.7838V16.7836ZM47.2162 16.7849L26.9286 32.0006L47.2162 47.2164V16.7849Z"/>
</mask>
<path fill-rule="evenodd" clip-rule="evenodd" d="M16.7838 16.7836H21.8558V47.2151H16.7838V16.7836ZM47.2162 16.7849L26.9286 32.0006L47.2162 47.2164V16.7849Z" fill="black"/>
<path d="M21.8558 16.7836V15.7836H22.8558V16.7836H21.8558ZM16.7838 16.7836H15.7838V15.7836H16.7838V16.7836ZM21.8558 47.2151H22.8558V48.2151H21.8558V47.2151ZM16.7838 47.2151V48.2151H15.7838V47.2151H16.7838ZM26.9286 32.0006L26.3286 32.8006L25.2619 32.0006L26.3286 31.2006L26.9286 32.0006ZM47.2162 16.7849L46.6162 15.9849L48.2162 14.7849V16.7849H47.2162ZM47.2162 47.2164H48.2162V49.2164L46.6162 48.0164L47.2162 47.2164ZM21.8558 17.7836H16.7838V15.7836H21.8558V17.7836ZM20.8558 47.2151V16.7836H22.8558V47.2151H20.8558ZM16.7838 46.2151H21.8558V48.2151H16.7838V46.2151ZM17.7838 16.7836V47.2151H15.7838V16.7836H17.7838ZM26.3286 31.2006L46.6162 15.9849L47.8162 17.5849L27.5286 32.8006L26.3286 31.2006ZM46.6162 48.0164L26.3286 32.8006L27.5286 31.2006L47.8162 46.4164L46.6162 48.0164ZM48.2162 16.7849V47.2164H46.2162V16.7849H48.2162Z" fill="black" mask="url(#path-1-outside-1_362_6071)"/>
</svg>
