<svg width="64" height="64" viewBox="0 0 64 64" fill="none" xmlns="http://www.w3.org/2000/svg">
<circle cx="32.5" cy="31.5" r="16.5" fill="white"/>
<path d="M57.349 26.7636L49.1811 12.6496C48.268 11.0674 46.9552 9.75184 45.3737 8.83424C43.7923 7.91664 41.9974 7.42904 40.1682 7.42011L23.8324 7.42011C22.0008 7.41701 20.2012 7.89954 18.6176 8.81835C17.0341 9.73717 15.7234 11.0593 14.8195 12.6496L6.65163 26.7636C5.73808 28.3453 5.2572 30.1391 5.2572 31.9649C5.2572 33.7908 5.73808 35.5845 6.65163 37.1663L14.8195 51.2803C15.7326 52.8625 17.0454 54.178 18.6269 55.0956C20.2083 56.0132 22.0032 56.5008 23.8324 56.5097L40.1682 56.5097C41.9998 56.5128 43.7994 56.0303 45.383 55.1115C46.9665 54.1927 48.2772 52.8705 49.1811 51.2803L57.349 37.2225C58.2625 35.6305 58.7432 33.8277 58.7432 31.993C58.7432 30.1583 58.2625 28.3556 57.349 26.7636ZM44.1677 31.3244L43.9423 39.8654C43.9379 41.7878 43.1709 43.6303 41.8091 44.9897C40.4473 46.349 38.6016 47.1147 36.6757 47.1192L28.9585 47.1192C27.7115 47.124 26.4847 46.8052 25.3984 46.194C24.3121 45.5828 23.4037 44.7002 22.7621 43.6328L22.7058 43.6328L17.1291 32.6678C17.0232 32.4467 16.9625 32.2067 16.9505 31.9618C16.9386 31.717 16.9757 31.4723 17.0596 31.2419C17.1435 31.0116 17.2726 30.8002 17.4393 30.6202C17.6059 30.4402 17.8069 30.2952 18.0304 30.1936C18.4721 29.9681 18.9848 29.9243 19.4586 30.0714C19.9324 30.2185 20.3296 30.545 20.5652 30.9809L22.3115 34.411C22.3812 34.5443 22.4929 34.6512 22.6293 34.715C22.7658 34.7788 22.9195 34.796 23.0668 34.7641C23.214 34.7321 23.3467 34.6527 23.4443 34.5381C23.542 34.4235 23.5991 34.28 23.6071 34.1298L23.6071 20.1845C23.6071 19.6775 23.8089 19.1912 24.168 18.8326C24.5272 18.4741 25.0144 18.2727 25.5223 18.2727C26.0303 18.2727 26.5174 18.4741 26.8766 18.8326C27.2358 19.1912 27.4375 19.6775 27.4375 20.1845L27.4375 30.0812C27.4432 30.3031 27.5341 30.5143 27.6913 30.6713C27.8486 30.8283 28.0602 30.919 28.2825 30.9246C28.5137 30.9307 28.738 30.8456 28.9067 30.6877C29.0754 30.5298 29.175 30.3119 29.1838 30.0812L29.1838 18.6663C29.1838 18.1592 29.3856 17.673 29.7447 17.3144C30.1039 16.9559 30.5911 16.7544 31.099 16.7544C31.607 16.7544 32.0941 16.9559 32.4533 17.3144C32.8125 17.673 33.0143 18.1592 33.0143 18.6663L33.0143 30.1374C33.0119 30.2488 33.0322 30.3595 33.0739 30.4629C33.1155 30.5663 33.1777 30.6602 33.2566 30.739C33.3355 30.8177 33.4296 30.8798 33.5332 30.9214C33.6367 30.9629 33.7476 30.9832 33.8592 30.9809C34.0904 30.987 34.3147 30.9018 34.4834 30.7439C34.6521 30.586 34.7517 30.3681 34.7605 30.1374L34.7605 20.1845C34.7605 19.6775 34.9623 19.1912 35.3215 18.8326C35.6806 18.4741 36.1678 18.2727 36.6757 18.2727C37.1837 18.2727 37.6708 18.4741 38.03 18.8326C38.3892 19.1912 38.591 19.6775 38.591 20.1845L38.591 30.1936C38.5887 30.305 38.6089 30.4158 38.6506 30.5191C38.6922 30.6225 38.7544 30.7164 38.8333 30.7952C38.9122 30.874 39.0063 30.936 39.1099 30.9776C39.2134 31.0192 39.3243 31.0394 39.4359 31.0371C39.6671 31.0432 39.8914 30.9581 40.0601 30.8002C40.2288 30.6423 40.3284 30.4243 40.3372 30.1936L40.3372 22.8274C40.3563 22.3367 40.5677 21.8731 40.926 21.5365C41.2842 21.1999 41.7606 21.0173 42.2524 21.028C42.4971 21.0182 42.7413 21.0573 42.9707 21.1428C43.2001 21.2284 43.4102 21.3588 43.5885 21.5263C43.7668 21.6939 43.9099 21.8952 44.0094 22.1186C44.1088 22.342 44.1626 22.583 44.1677 22.8274L44.1677 31.0933L44.1677 31.3244Z" fill="#DA1E28"/>
</svg>
