<svg width="64" height="64" viewBox="0 0 64 64" fill="none" xmlns="http://www.w3.org/2000/svg">
<path fill-rule="evenodd" clip-rule="evenodd" d="M12.0248 19.5656C12.0212 19.4462 12.0424 19.3274 12.0869 19.2164C12.1315 19.1055 12.1985 19.0049 12.2838 18.9209L16.4463 14.7762C16.6186 14.6021 16.8534 14.5034 17.0988 14.5016C17.3443 14.4999 17.5804 14.5953 17.7552 14.7669C17.93 14.9386 18.0291 15.1723 18.0309 15.4167C18.0326 15.6611 17.9368 15.8962 17.7644 16.0702L15.1744 18.6446H24.0498C24.2951 18.6446 24.5304 18.7416 24.7039 18.9143C24.8773 19.0871 24.9748 19.3214 24.9748 19.5656C24.9748 19.8099 24.8773 20.0442 24.7039 20.2169C24.5304 20.3896 24.2951 20.4867 24.0498 20.4867H15.1744L17.7644 23.0656C17.9368 23.2397 18.0326 23.4748 18.0309 23.7192C18.0291 23.9636 17.93 24.1973 17.7552 24.3689C17.6686 24.4539 17.5661 24.5211 17.4535 24.5666C17.3409 24.6121 17.2204 24.6351 17.0988 24.6342C16.8534 24.6325 16.6186 24.5338 16.4463 24.3597L12.2838 20.215C12.1152 20.0408 12.0221 19.8075 12.0248 19.5656ZM27.7499 31.9984C26.2329 29.1984 24.7436 29.4885 23.5874 30.1563C22.2508 31.0451 21.7374 31.9615 22.6624 34.301C24.7621 39.4359 27.9858 45.5517 31.4499 49.4984H43.9374C48.3265 46.2747 51.86 30.8655 45.7874 30.1563C45.2324 30.1563 44.3398 30.2438 43.9374 30.6168C43.9444 30.3125 43.8893 30.01 43.7755 29.7275C43.6618 29.445 43.4917 29.1884 43.2756 28.9732C43.0594 28.758 42.8017 28.5886 42.518 28.4753C42.2343 28.3621 41.9305 28.3072 41.6249 28.3142C40.8202 28.3142 40.2374 28.7747 39.7749 29.6957C39.7887 29.3897 39.7383 29.0842 39.627 28.7986C39.5157 28.513 39.3458 28.2536 39.1283 28.037C38.9107 27.8204 38.6502 27.6512 38.3634 27.5404C38.0766 27.4295 37.7698 27.3794 37.4624 27.3931C36.9889 27.4001 36.5256 27.5315 36.1195 27.7741C35.7134 28.0167 35.3789 28.3619 35.1499 28.7747V19.1036C35.1499 18.3708 34.8575 17.668 34.3371 17.1498C33.8167 16.6316 33.1109 16.3405 32.3749 16.3405C31.6389 16.3405 30.9331 16.6316 30.4127 17.1498C29.8923 17.668 29.5999 18.3708 29.5999 19.1036V35.6826L27.7499 31.9984ZM51.9131 19.9196C51.9576 19.8087 51.9788 19.6898 51.9752 19.5704C51.9779 19.3285 51.8848 19.0952 51.7162 18.9211L47.5537 14.7763C47.3813 14.6023 47.1466 14.5035 46.9012 14.5018C46.7796 14.5009 46.6591 14.5239 46.5465 14.5695C46.4339 14.615 46.3314 14.6821 46.2448 14.7671C46.07 14.9387 45.9708 15.1724 45.9691 15.4168C45.9674 15.6613 46.0632 15.8964 46.2356 16.0704L48.8256 18.6493L39.9502 18.6493C39.7049 18.6493 39.4696 18.7464 39.2961 18.9191C39.1226 19.0918 39.0252 19.3261 39.0252 19.5704C39.0252 19.8147 39.1226 20.049 39.2961 20.2217C39.4696 20.3944 39.7049 20.4915 39.9502 20.4915L48.8256 20.4915L46.2356 23.0658C46.0632 23.2398 45.9674 23.4749 45.9691 23.7193C45.9708 23.9638 46.07 24.1975 46.2448 24.3691C46.4196 24.5407 46.6557 24.6361 46.9012 24.6344C47.1466 24.6327 47.3813 24.5339 47.5537 24.3599L51.7162 20.2151C51.8015 20.1311 51.8685 20.0305 51.9131 19.9196Z" fill="black"/>
</svg>
