<svg width="64" height="64" viewBox="0 0 64 64" fill="none" xmlns="http://www.w3.org/2000/svg">
<path fill-rule="evenodd" clip-rule="evenodd" d="M39.9371 17.6005C40.3258 17.5919 40.7099 17.6864 41.0504 17.8742C41.3883 18.0659 41.6696 18.3435 41.8656 18.6788C42.0617 19.0142 42.1656 19.3955 42.1669 19.784L42.1669 44.856C42.1745 45.2707 42.0623 45.6788 41.8437 46.0312C41.5353 46.5201 41.0456 46.8668 40.482 46.9953C39.9184 47.1239 39.3269 47.0237 38.837 46.7168L29.435 40.9287L29.435 23.7113L38.837 17.9232C39.1688 17.7205 39.5484 17.6091 39.9371 17.6005ZM21.6 37.021L21.6 27.619C21.6 26.7878 21.9302 25.9907 22.5179 25.4029C23.1056 24.8152 23.9028 24.485 24.734 24.485L27.4762 24.485L27.4762 40.155L24.734 40.155C24.3224 40.155 23.9149 40.0739 23.5346 39.9164C23.1544 39.7589 22.8089 39.5281 22.5179 39.2371C22.2269 38.9461 21.996 38.6006 21.8385 38.2203C21.681 37.8401 21.6 37.4326 21.6 37.021Z" fill="black"/>
</svg>
