<svg width="64" height="64" viewBox="0 0 64 64" fill="none" xmlns="http://www.w3.org/2000/svg">
<path d="M12.3702 39.5H14.7902L15.8902 36.66H23.1502L24.2502 39.5H26.7502L20.7902 24.58H18.3102L12.3702 39.5ZM16.7302 34.42L19.5102 27.48L22.2902 34.42H16.7302ZM27.127 39.5H29.507L37.807 24.68H35.427L27.127 39.5ZM45.4451 39.72C48.5651 39.72 50.0851 38.7 51.1851 37.58L49.4651 35.94C48.5651 36.78 47.6651 37.44 45.5851 37.44C41.9051 37.44 40.4251 35.56 40.4251 32.1C40.4251 28.58 42.0651 26.78 45.5651 26.78C47.1851 26.78 48.3451 27.28 49.3251 28.2L51.0851 26.46C49.7251 25.12 47.9851 24.44 45.5851 24.44C40.7651 24.44 37.9851 26.82 37.9851 32.08C37.9851 37.04 40.1851 39.72 45.4451 39.72Z" fill="white"/>
</svg>
