<svg width="64" height="64" viewBox="0 0 64 64" fill="none" xmlns="http://www.w3.org/2000/svg">
<path fill-rule="evenodd" clip-rule="evenodd" d="M29.8244 21C28.5666 21.007 27.3372 21.3788 26.2811 22.0716L19.5676 26.421C19.1066 26.7102 18.6029 26.923 18.0758 27.0514L11.4866 28.7533C10.7744 28.9246 10.1407 29.3358 9.68898 29.9198C9.23729 30.5038 8.99442 31.2259 9.0001 31.9681V35.1829C9.0001 36.0689 9.3472 36.9187 9.96506 37.5452C10.5829 38.1717 11.4209 38.5237 12.2947 38.5237H14.7812C14.7286 39.0981 14.7961 39.6772 14.9794 40.2232C15.1628 40.7692 15.4577 41.2699 15.845 41.6923C16.2323 42.1148 16.7031 42.4496 17.2268 42.6748C17.7505 42.9 18.3152 43.0106 18.8839 42.9992C19.4226 42.9992 19.9561 42.8916 20.4539 42.6825C20.9517 42.4734 21.4039 42.167 21.7849 41.7807C22.1659 41.3944 22.4681 40.9357 22.6743 40.431C22.8804 39.9262 22.9866 39.3852 22.9866 38.8389H41.0757C41.0673 39.3876 41.1677 39.9324 41.3709 40.441C41.5741 40.9496 41.876 41.4116 42.2587 41.7996C42.6413 42.1877 43.0969 42.4938 43.5985 42.6999C44.1 42.9059 44.6373 43.0077 45.1784 42.9992C45.7419 43.0016 46.2997 42.8845 46.8159 42.6554C47.3321 42.4262 47.7954 42.0901 48.1759 41.6687C48.5564 41.2472 48.8458 40.7497 49.0254 40.2081C49.205 39.6664 49.271 39.0927 49.2189 38.5237H50.027C50.6771 38.5321 51.3224 38.4094 51.9254 38.1629C52.5284 37.9164 53.0771 37.5509 53.5398 37.0877C54.0024 36.6244 54.3697 36.0726 54.6203 35.4643C54.871 34.856 55.0001 34.2032 55 33.544V28.5012C54.9839 28.0608 54.8 27.6439 54.487 27.3383C54.1739 27.0326 53.7562 26.862 53.3216 26.8623H52.4514C51.9762 26.8562 51.508 26.7461 51.0789 26.5394C50.6497 26.3326 50.2696 26.0342 49.9649 25.6646L46.9811 22.1977C46.6763 21.828 46.2963 21.5296 45.8671 21.3229C45.4379 21.1161 44.9697 21.006 44.4946 21H29.8244ZM32.2487 24.593L33.4298 25.7907L32.373 26.8623H38.2163C39.1531 26.876 40.0505 27.2467 40.73 27.9008C41.4095 28.5548 41.8215 29.4443 41.8838 30.3922V30.3922C41.8678 31.3735 41.4763 32.3101 40.7919 33.004C40.1075 33.698 39.184 34.0951 38.2163 34.1113H27.8974C27.8094 34.1513 27.714 34.1719 27.6176 34.1719C27.5212 34.1719 27.4259 34.1513 27.3379 34.1113L26.5298 33.2918L27.6487 32.0942L28.2703 32.6615H38.2163C38.4993 32.6535 38.7779 32.588 39.0355 32.4687C39.2931 32.3495 39.5244 32.179 39.7158 31.9673C39.9071 31.7556 40.0546 31.5071 40.1494 31.2366C40.2442 30.966 40.2844 30.6789 40.2676 30.3922C40.2676 29.8405 40.0515 29.3114 39.6668 28.9213C39.2821 28.5312 38.7603 28.3121 38.2163 28.3121H32.373L33.4298 29.4467L32.2487 30.5813L29.2028 27.4926L32.2487 24.593Z" fill="white"/>
</svg>
