<svg width="64" height="64" viewBox="0 0 64 64" fill="none" xmlns="http://www.w3.org/2000/svg">
<path fill-rule="evenodd" clip-rule="evenodd" d="M36.4048 20.1594L31.0059 25.7285V23.2823H22.3136V17.0885H31.0059V14.6423L36.4048 20.1594ZM45.5409 25.4686C48.0066 25.4686 50.0055 23.4645 50.0055 20.9924C50.0055 18.5203 48.0066 16.5163 45.5409 16.5163C43.0753 16.5163 41.0764 18.5203 41.0764 20.9924C41.0764 23.4645 43.0753 25.4686 45.5409 25.4686ZM44.2959 27.9139C43.4263 27.3275 42.3613 27.1079 41.3315 27.3028C40.3017 27.4976 39.3897 28.0911 38.7931 28.9549L32.5635 38.1674L25.8667 35.6691C25.3388 35.4614 24.7614 35.4149 24.2072 35.5353C23.653 35.6557 23.1467 35.9376 22.7519 36.3457L14.861 44.257C14.4483 44.6739 14.1671 45.2033 14.0524 45.7793C13.9377 46.3553 13.9946 46.9524 14.216 47.4962C14.4374 48.04 14.8135 48.5065 15.2974 48.8375C15.7814 49.1685 16.3518 49.3495 16.9376 49.3577C17.7182 49.3449 18.4631 49.0275 19.0141 48.4729L25.5552 41.9149L33.2383 44.8296C33.4392 44.9059 33.6482 44.9584 33.8613 44.9857C34.2937 45.147 34.7498 45.235 35.211 45.2459C35.8527 45.2388 36.4836 45.0794 37.052 44.7809C37.6205 44.4824 38.1104 44.0532 38.4816 43.5284L45.2822 33.4831C45.5831 33.0528 45.7964 32.5672 45.9097 32.0541C46.023 31.541 46.0342 31.0106 45.9425 30.4931C45.8509 29.9757 45.6582 29.4815 45.3757 29.0389C45.0931 28.5963 44.7261 28.214 44.2959 27.9139Z" fill="white"/>
</svg>
