<svg width="64" height="64" viewBox="0 0 64 64" fill="none" xmlns="http://www.w3.org/2000/svg">
<path fill-rule="evenodd" clip-rule="evenodd" d="M48.6232 24.8499C51.0404 24.8499 53 22.9248 53 20.55C53 18.1752 51.0404 16.2501 48.6232 16.2501C46.206 16.2501 44.2465 18.1752 44.2465 20.55C44.2465 22.9248 46.206 24.8499 48.6232 24.8499ZM47.3505 27.2003C46.498 26.637 45.454 26.4261 44.4444 26.6132C43.4348 26.8004 42.5408 27.3705 41.9559 28.2003L35.8488 37.0501L29.2837 34.6502C28.7662 34.4507 28.2002 34.406 27.6569 34.5216C27.1136 34.6373 26.6172 34.9082 26.2302 35.3002L18.5455 42.85C18.1409 43.2505 17.8652 43.7591 17.7527 44.3124C17.6403 44.8657 17.6961 45.4393 17.9131 45.9617C18.1301 46.4841 18.4988 46.9322 18.9733 47.2502C19.4477 47.5682 20.0069 47.742 20.5811 47.7499C21.3464 47.7376 22.0767 47.4327 22.6168 46.9L29.0293 40.6001L36.5613 43.4C36.7582 43.4734 36.9632 43.5237 37.172 43.55C37.5959 43.705 38.0431 43.7895 38.4952 43.8C39.1243 43.7932 39.7427 43.6401 40.3 43.3533C40.8573 43.0665 41.3375 42.6542 41.7014 42.15L48.3683 32.5002C48.6595 32.0879 48.8643 31.6227 48.9709 31.1318C49.0774 30.6409 49.0834 30.1341 48.9887 29.6409C48.894 29.1477 48.7004 28.678 48.4191 28.259C48.1379 27.84 47.7746 27.4801 47.3505 27.2003ZM23.2281 26.4494L23.1263 33.8992L15.5434 33.9992L17.2228 32.2993L11 27.0213L15.2241 22.8214L21.4978 28.1493L23.2281 26.4494Z" fill="white"/>
</svg>
