<svg width="64" height="64" viewBox="0 0 64 64" fill="none" xmlns="http://www.w3.org/2000/svg">
<path fill-rule="evenodd" clip-rule="evenodd" d="M34.3191 25.7577L39.6275 20.2146L34.3191 14.7232V17.1581H25.8298V23.3229H34.3191V25.7577ZM53 21.0437C53 23.5043 51.0347 25.499 48.6103 25.499C46.186 25.499 44.2207 23.5043 44.2207 21.0437C44.2207 18.5831 46.186 16.5885 48.6103 16.5885C51.0347 16.5885 53 18.5831 53 21.0437ZM44.4191 27.3247C45.4317 27.1308 46.4787 27.3493 47.3338 27.933C47.7598 28.2286 48.1242 28.6066 48.4061 29.0453C48.688 29.484 48.882 29.9749 48.9768 30.4897C49.0716 31.0046 49.0654 31.5334 48.9587 32.0458C48.8519 32.5583 48.6466 33.0444 48.3546 33.4762L41.668 43.4746C41.303 43.997 40.8214 44.4242 40.2625 44.7213C39.7036 45.0185 39.0833 45.1771 38.4524 45.1842C37.9989 45.1733 37.5504 45.0857 37.1253 44.9252C36.9158 44.8979 36.7102 44.8458 36.5128 44.7697L28.9585 41.8687L22.5271 48.3961C21.9854 48.9481 21.253 49.264 20.4854 49.2768C19.9095 49.2686 19.3486 49.0885 18.8728 48.759C18.397 48.4296 18.0272 47.9653 17.8095 47.424C17.5918 46.8827 17.5359 46.2884 17.6487 45.7151C17.7615 45.1418 18.038 44.6148 18.4437 44.1999L26.1511 36.3255C26.5393 35.9193 27.0372 35.6386 27.5821 35.5188C28.127 35.399 28.6946 35.4453 29.2137 35.652L35.7982 38.1387L41.9232 28.9691C42.5099 28.1094 43.4065 27.5186 44.4191 27.3247ZM23.1402 27.1562L23.0381 34.927L15.4328 35.0306L17.1172 33.2692L11 27.9005L15.2365 23.5488L21.4048 28.9176L23.1402 27.1562Z" fill="white"/>
</svg>
