<svg width="64" height="64" viewBox="0 0 64 64" fill="none" xmlns="http://www.w3.org/2000/svg">
<path fill-rule="evenodd" clip-rule="evenodd" d="M22.8931 17.8821C25.2998 15.4835 28.5752 14.1233 31.9999 14.1002C35.4246 14.1233 38.7 15.4835 41.1067 17.8821C43.5133 20.2807 44.8545 23.5215 44.8355 26.8928L44.8355 33.0178C45.7256 33.3264 46.502 33.8891 47.0657 34.6341C47.6293 35.3791 47.9546 36.2725 48 37.2003C48 38.4939 47.4805 39.7349 46.5546 40.6529C45.6288 41.5708 44.3718 42.0911 43.0577 42.1004L20.942 42.1004C19.628 42.0911 18.371 41.5708 17.4451 40.6529C16.5193 39.7349 15.9997 38.4939 15.9998 37.2003C16.0451 36.2725 16.3704 35.3791 16.9341 34.6341C17.4977 33.8891 18.2742 33.3264 19.1642 33.0178L19.1642 26.8928C19.1453 23.5215 20.4864 20.2807 22.8931 17.8821ZM27.4882 45.6862C27.8008 45.3111 28.2247 45.1004 28.6667 45.1004L35.3335 45.1004C35.7755 45.1004 36.1994 45.3111 36.512 45.6862C36.8245 46.0613 37.0001 46.57 37.0001 47.1004C37.0001 47.6309 36.8245 48.1396 36.512 48.5146C36.1994 48.8897 35.7755 49.1004 35.3335 49.1004L28.6667 49.1004C28.2247 49.1004 27.8008 48.8897 27.4882 48.5146C27.1757 48.1396 27.0001 47.6309 27.0001 47.1004C27.0001 46.57 27.1757 46.0613 27.4882 45.6862Z" fill="white"/>
</svg>
