<svg width="64" height="64" viewBox="0 0 64 64" fill="none" xmlns="http://www.w3.org/2000/svg">
<path fill-rule="evenodd" clip-rule="evenodd" d="M19.2 21.2C19.2 20.0954 20.0954 19.2 21.2 19.2L24.5919 19.2C25.6965 19.2 26.5919 20.0954 26.5919 21.2L26.5919 24.592C26.5919 25.6966 25.6965 26.592 24.5919 26.592L21.2 26.592C20.0954 26.592 19.2 25.6966 19.2 24.592L19.2 21.2ZM38.2079 21.2C38.2079 20.0954 39.1034 19.2 40.2079 19.2L43.5999 19.2C44.7045 19.2 45.5999 20.0954 45.5999 21.2L45.5999 24.592C45.5999 25.6966 44.7045 26.592 43.5999 26.592L40.2079 26.592C39.1034 26.592 38.2079 25.6966 38.2079 24.592L38.2079 21.2ZM30.7039 19.2C29.5993 19.2 28.7039 20.0954 28.7039 21.2L28.7039 24.592C28.7039 25.6966 29.5993 26.592 30.7039 26.592L34.0959 26.592C35.2005 26.592 36.0959 25.6966 36.0959 24.592L36.0959 21.2C36.0959 20.0954 35.2005 19.2 34.0959 19.2L30.7039 19.2ZM38.2079 30.704C38.2079 29.5994 39.1034 28.704 40.2079 28.704L43.5999 28.704C44.7045 28.704 45.5999 29.5994 45.5999 30.704L45.5999 34.096C45.5999 35.2006 44.7045 36.096 43.5999 36.096L40.2079 36.096C39.1034 36.096 38.2079 35.2006 38.2079 34.096L38.2079 30.704ZM21.2 28.704C20.0954 28.704 19.2 29.5994 19.2 30.704L19.2 34.096C19.2 35.2006 20.0954 36.096 21.2 36.096L24.5919 36.096C25.6965 36.096 26.5919 35.2006 26.5919 34.096L26.5919 30.704C26.5919 29.5994 25.6965 28.704 24.5919 28.704L21.2 28.704ZM28.7039 30.704C28.7039 29.5994 29.5993 28.704 30.7039 28.704L34.0959 28.704C35.2005 28.704 36.0959 29.5994 36.0959 30.704L36.0959 34.096C36.0959 35.2006 35.2005 36.096 34.0959 36.096L30.7039 36.096C29.5993 36.096 28.7039 35.2006 28.7039 34.096L28.7039 30.704ZM40.2079 38.208C39.1034 38.208 38.2079 39.1034 38.2079 40.208L38.2079 43.6C38.2079 44.7046 39.1034 45.6 40.2079 45.6L43.5999 45.6C44.7045 45.6 45.5999 44.7046 45.5999 43.6L45.5999 40.208C45.5999 39.1034 44.7045 38.208 43.5999 38.208L40.2079 38.208ZM19.2 40.208C19.2 39.1034 20.0954 38.208 21.2 38.208L24.5919 38.208C25.6965 38.208 26.5919 39.1034 26.5919 40.208L26.5919 43.6C26.5919 44.7046 25.6965 45.6 24.5919 45.6L21.1999 45.6C20.0954 45.6 19.1999 44.7046 19.1999 43.6L19.2 40.208ZM30.7039 38.208C29.5993 38.208 28.7039 39.1034 28.7039 40.208L28.7039 43.6C28.7039 44.7046 29.5993 45.6 30.7039 45.6L34.0959 45.6C35.2005 45.6 36.0959 44.7046 36.0959 43.6L36.0959 40.208C36.0959 39.1034 35.2005 38.208 34.0959 38.208L30.7039 38.208Z" fill="white"/>
</svg>
