<svg width="64" height="64" viewBox="0 0 64 64" fill="none" xmlns="http://www.w3.org/2000/svg">
<path d="M2.01867 39H4.43867L5.53867 36.16H12.7987L13.8987 39H16.3987L10.4387 24.08H7.95867L2.01867 39ZM6.37867 33.92L9.15867 26.98L11.9387 33.92H6.37867ZM24.3448 39.26C30.0848 39.26 30.8248 36.36 30.8248 33.48V24.18H28.4648V33.16C28.4648 35.56 27.7448 37 24.3648 37C21.0048 37 20.3248 35.5 20.3248 33.16V24.18H17.9048V33.48C17.9048 36.36 18.5848 39.26 24.3448 39.26ZM38.0823 39H40.5223V26.5H45.8623V24.18H32.7423V26.5H38.0823V39ZM53.9259 39.24C58.6659 39.24 61.5859 37.04 61.5859 31.58C61.5859 26.14 58.6659 23.94 53.9259 23.94C49.1859 23.94 46.2859 26.14 46.2859 31.58C46.2859 37.04 49.1859 39.24 53.9259 39.24ZM53.9259 36.98C50.2259 36.98 48.7259 35.02 48.7259 31.62C48.7259 28.24 50.2259 26.28 53.9259 26.28C57.6459 26.28 59.1459 28.24 59.1459 31.62C59.1459 35.02 57.6459 36.98 53.9259 36.98Z" fill="white"/>
</svg>
