<svg width="64" height="64" viewBox="0 0 64 64" fill="none" xmlns="http://www.w3.org/2000/svg">
<path fill-rule="evenodd" clip-rule="evenodd" d="M33.2699 13H30.729V18.0669H33.2699V13ZM31.9995 23.1333C27.0873 23.1333 23.1059 27.1041 23.1059 32C23.1059 36.8964 27.0873 40.8672 31.9995 40.8672C36.9093 40.8672 40.8931 36.8964 40.8931 32C40.8931 27.1036 36.9093 23.1333 31.9995 23.1333ZM30.729 45.9331H33.2699V51H30.729V45.9331ZM18.0242 30.7334H12.9419V33.2666H18.0242V30.7334ZM45.9754 30.7334H51.0577V33.2666H45.9754V30.7334ZM43.1512 22.6722L41.3548 20.882L44.5758 17.6697L46.3722 19.4608L43.1512 22.6722ZM17.6246 44.5407L19.4219 46.3308L22.642 43.1194L20.8456 41.3283L17.6246 44.5407ZM22.6434 20.8806L20.8466 22.6722L17.6246 19.4608L19.4219 17.6697L22.6434 20.8806ZM44.5773 46.3308L46.3737 44.5392L43.1512 41.3283L41.3548 43.1194L44.5773 46.3308Z" fill="white"/>
</svg>
