<svg width="64" height="64" viewBox="0 0 64 64" fill="none" xmlns="http://www.w3.org/2000/svg">
<path d="M18.9747 35.2842L19.0522 35.3981C19.147 35.5426 19.246 35.6827 19.345 35.8359L30.5655 52.2414C30.8328 52.6278 31.2397 52.8908 31.6972 52.9728C32.1548 53.0549 32.6256 52.9493 33.0068 52.6792C33.1726 52.5578 33.318 52.41 33.4374 52.2414L44.632 35.8622C44.7396 35.7089 44.843 35.5601 44.9463 35.4244L45.0152 35.3193C46.1206 33.5812 46.8786 31.6387 47.2458 29.6027C47.6129 27.5667 47.5821 25.4771 47.1551 23.4532C46.7281 21.4294 45.9133 19.5108 44.7571 17.8072C43.6009 16.1036 42.1261 14.6482 40.4168 13.5242C38.707 12.4005 36.7963 11.6303 34.7938 11.2576C32.7912 10.8848 30.7361 10.9169 28.7458 11.352C26.7554 11.787 24.8689 12.6165 23.1938 13.793C21.5188 14.9695 20.088 16.4701 18.9834 18.2089C17.3623 20.7586 16.5 23.7302 16.5 26.7663C16.5 29.8024 17.3623 32.7739 18.9834 35.3236L18.9747 35.2842ZM32.0036 20.2054C33.7165 20.2054 35.3592 20.8973 36.5704 22.129C37.7816 23.3606 38.462 25.0311 38.462 26.7729C38.462 28.5146 37.7816 30.1851 36.5704 31.4167C35.3592 32.6484 33.7165 33.3403 32.0036 33.3403C30.2907 33.3403 28.648 32.6484 27.4368 31.4167C26.2256 30.1851 25.5451 28.5146 25.5451 26.7729C25.5451 25.0311 26.2256 23.3606 27.4368 22.129C28.648 20.8973 30.2907 20.2054 32.0036 20.2054V20.2054Z" fill="white"/>
</svg>
