<svg width="64" height="64" viewBox="0 0 64 64" fill="none" xmlns="http://www.w3.org/2000/svg">
<path fill-rule="evenodd" clip-rule="evenodd" d="M42.6722 20.0438C42.8565 19.8649 42.9987 19.6447 43.0877 19.4C43.1768 19.1553 43.2103 18.8927 43.1858 18.6326C43.1612 18.3724 43.0793 18.1215 42.9462 17.8992C42.8131 17.6769 42.6324 17.4892 42.4181 17.3506C40.79 16.3236 38.8791 15.8827 36.9833 16.0966C35.0875 16.3105 33.3134 17.1671 31.9377 18.533C30.5781 19.9442 29.7192 21.7889 29.5001 23.7681C29.2811 25.7473 29.7147 27.745 30.7308 29.4374C30.8697 29.6529 31.0532 29.8338 31.2679 29.967C31.4827 30.1001 31.7234 30.1823 31.9727 30.2074C32.2219 30.2326 32.4735 30.2001 32.7091 30.1124C32.9447 30.0246 33.1585 29.8838 33.335 29.7002C35.4311 27.5981 40.3856 22.4743 42.6722 20.0438ZM19.8809 20.5339C20.1175 20.626 20.3305 20.773 20.5035 20.9637C21.2183 21.703 22.1564 22.6792 23.1767 23.741L23.1768 23.7411C25.5108 26.17 28.2744 29.046 29.7771 30.5543C29.9547 30.7369 30.0909 30.958 30.1757 31.2017C30.2605 31.4454 30.2919 31.7055 30.2676 31.9633C30.2433 32.221 30.1639 32.47 30.0351 32.6921C29.9063 32.9142 29.7314 33.104 29.523 33.2476C27.9101 34.324 25.9883 34.794 24.08 34.5787C22.1717 34.3634 20.3931 33.476 19.0426 32.0652C17.7219 30.6425 16.8935 28.8077 16.6867 26.8471C16.4799 24.8865 16.9062 22.9102 17.8992 21.2264C18.0333 21.0048 18.2148 20.818 18.4297 20.6804C18.6447 20.5427 18.8873 20.4579 19.1388 20.4326C19.3904 20.4072 19.6443 20.4419 19.8809 20.5339ZM44.1193 43.3336C43.8827 43.2415 43.6697 43.0945 43.4967 42.9038L34.2231 33.3132C34.0376 33.1349 33.8943 32.9148 33.8045 32.67C33.7148 32.4251 33.6808 32.1621 33.7054 31.9015C33.73 31.6409 33.8124 31.3896 33.9463 31.1673C34.0802 30.945 34.2618 30.7577 34.4771 30.6199C36.0854 29.5289 38.0105 29.0502 39.9226 29.2659C41.8346 29.4816 43.6147 30.3783 44.9576 31.8023C46.2783 33.2251 47.1067 35.0598 47.3135 37.0204C47.5203 38.981 47.094 40.9573 46.101 42.6411C45.9669 42.8627 45.7854 43.0495 45.5704 43.1872C45.3555 43.3248 45.1129 43.4096 44.8613 43.435C44.6097 43.4603 44.3559 43.4257 44.1193 43.3336ZM21.0408 44.6001C21.1299 44.3554 21.272 44.1351 21.4564 43.9562L30.73 34.3656C30.9065 34.1819 31.1204 34.0411 31.356 33.9534C31.5916 33.8656 31.8431 33.8332 32.0924 33.8583C32.3416 33.8835 32.5823 33.9656 32.7971 34.0988C33.0119 34.2319 33.1954 34.4128 33.3342 34.6283C34.3751 36.2964 34.8295 38.2839 34.6214 40.2574C34.4132 42.2309 33.555 44.0704 32.1909 45.4671C30.8152 46.8329 29.0411 47.6896 27.1453 47.9035C25.2495 48.1174 23.3386 47.6764 21.7104 46.6495C21.4961 46.5108 21.3155 46.3231 21.1824 46.1009C21.0493 45.8786 20.9673 45.6277 20.9428 45.3675C20.9182 45.1073 20.9518 44.8448 21.0408 44.6001Z" fill="white"/>
</svg>
