<svg width="64" height="64" viewBox="0 0 64 64" fill="none" xmlns="http://www.w3.org/2000/svg">
<path fill-rule="evenodd" clip-rule="evenodd" d="M34.9887 49.23H23.0062C19.9562 49.23 18.5619 48.3899 16.9279 45.9556C13.7471 41.3024 15.8495 36.4877 20.4899 37.4032C24.7862 38.0735 29.1553 38.1568 33.4745 37.651C33.4745 37.651 39.3241 24.0684 41.0997 18.532C42.8753 12.9956 49.5637 14.0512 48.4744 18.532C46.4788 27.1684 44.543 34.4128 42.6141 41.6314C42.3634 42.5696 42.1128 43.5073 41.8622 44.4476C41.4033 45.8785 40.4826 47.1211 39.241 47.9849C37.9995 48.8487 36.5057 49.2861 34.9887 49.23ZM22.3308 25.0806L23.2022 26.7286C23.3003 26.9333 23.2022 27.0841 22.9735 27.0841H21.7861C21.7455 28.4115 21.276 29.6912 20.4463 30.7355C19.248 31.8881 19.248 32.976 19.248 35.3349V35.518H17.6032V35.3349C17.6032 32.8144 17.6032 31.2095 19.3025 29.583C19.819 28.847 20.1102 27.9794 20.1413 27.0841H18.8341C18.6162 27.0841 18.5073 26.9333 18.6162 26.7286L19.4768 25.0806C19.5748 24.8868 19.7491 24.5636 19.8581 24.3697L20.7186 22.7217C20.8166 22.5171 20.9909 22.5171 21.089 22.7217L21.9604 24.3697L22.3308 25.0806ZM29.4004 26.7286L28.5289 25.0806L28.1586 24.3697L27.2871 22.7217C27.1891 22.5171 27.0148 22.5171 26.9167 22.7217L26.0562 24.3697C25.9473 24.5636 25.773 24.8868 25.6749 25.0806L24.8144 26.7286C24.7054 26.9333 24.8144 27.0841 25.0322 27.0841H26.3394C26.3083 27.9794 26.0171 28.847 25.5006 29.583C23.8013 31.2095 23.8013 32.8467 23.8013 35.3349V35.518H25.4353V35.3349C25.4353 32.976 25.4353 31.8881 26.6335 30.7355C27.4712 29.6948 27.9452 28.4136 27.9843 27.0841H29.1716C29.4004 27.0841 29.4984 26.9333 29.4004 26.7286ZM34.6943 25.0806L35.5985 26.7286C35.6965 26.9333 35.5985 27.0841 35.3479 27.0841H34.1606C34.12 28.4115 33.6504 29.6912 32.8207 30.7355C31.6116 31.8881 31.6116 32.976 31.6116 35.3349V35.518H29.9776V35.3349C29.9776 32.8144 29.9776 31.2095 31.6769 29.583C32.1935 28.847 32.4846 27.9794 32.5157 27.0841H31.2303C31.0125 27.0841 30.9035 26.9333 31.0125 26.7286L31.873 25.0806L32.2543 24.3697L33.1148 22.7217C33.2238 22.5171 33.3872 22.5171 33.4961 22.7217L34.324 24.3697L34.6943 25.0806Z" fill="white"/>
</svg>
