<svg width="64" height="64" viewBox="0 0 64 64" fill="none" xmlns="http://www.w3.org/2000/svg">
<path d="M32 16.4976C29.6621 16.4926 27.4013 17.3087 25.635 18.7952C23.8687 20.2817 22.7163 22.3382 22.3906 24.585C22.3906 24.585 22.3906 24.585 22.3646 24.585V24.8428C22.314 25.2048 22.2844 25.5693 22.276 25.9346V27.2842C21.5402 27.2855 20.8349 27.5698 20.3146 28.0747C19.7943 28.5797 19.5014 29.2642 19.5 29.9783V44.8035C19.5014 45.5181 19.7941 46.2031 20.3143 46.7088C20.8344 47.2146 21.5397 47.5 22.276 47.5027H41.724C42.4603 47.5 43.1656 47.2146 43.6857 46.7088C44.2059 46.2031 44.4986 45.5181 44.5 44.8035V29.9783C44.4986 29.2642 44.2057 28.5797 43.6854 28.0747C43.1651 27.5698 42.4598 27.2855 41.724 27.2842V25.9346C41.7207 25.5696 41.6964 25.2051 41.651 24.8428V24.585C41.3254 22.3308 40.1673 20.2682 38.3921 18.7806C36.6169 17.293 34.3454 16.4817 32 16.4976V16.4976ZM32 20.5413C33.0933 20.5417 34.1622 20.8551 35.0729 21.4422C35.9836 22.0293 36.6956 22.8641 37.1198 23.842C37.2628 24.1673 37.371 24.5061 37.4427 24.8529C37.5176 25.2089 37.556 25.5712 37.5573 25.9346V27.2842H26.4427V25.9346C26.4488 25.5657 26.4925 25.1983 26.5729 24.8377C26.6786 24.3514 26.8539 23.8818 27.0937 23.4427C27.1615 23.3112 27.2292 23.1748 27.3073 23.0535C27.3854 22.9321 27.4896 22.8007 27.5833 22.6794C27.6771 22.5581 27.8177 22.3964 27.9427 22.2599C28.0677 22.1234 28.1302 22.083 28.224 21.992C28.389 21.8487 28.563 21.7154 28.7448 21.5927C28.8385 21.5219 28.9323 21.4562 29.0312 21.3955C29.2276 21.2776 29.4311 21.1712 29.6406 21.0771C29.7396 21.0265 29.8385 20.976 29.9375 20.9356C30.1668 20.8513 30.4017 20.782 30.6406 20.7283C30.7448 20.7283 30.8385 20.6677 30.9427 20.6475C31.2856 20.5798 31.6345 20.5443 31.9844 20.5413H32Z" fill="white"/>
</svg>
