<svg width="64" height="64" viewBox="0 0 64 64" fill="none" xmlns="http://www.w3.org/2000/svg">
<mask id="path-1-outside-1_3107_11964" maskUnits="userSpaceOnUse" x="15.7839" y="14.7836" width="33" height="35" fill="black">
<rect fill="white" x="15.7839" y="14.7836" width="33" height="35"/>
<path fill-rule="evenodd" clip-rule="evenodd" d="M47.2163 16.7836H42.1444V47.2151H47.2163V16.7836ZM16.7839 16.7849L37.0716 32.0006L16.7839 47.2164V16.7849Z"/>
</mask>
<path fill-rule="evenodd" clip-rule="evenodd" d="M47.2163 16.7836H42.1444V47.2151H47.2163V16.7836ZM16.7839 16.7849L37.0716 32.0006L16.7839 47.2164V16.7849Z" fill="white"/>
<path d="M42.1444 16.7836V15.7836H41.1444V16.7836H42.1444ZM47.2163 16.7836H48.2163V15.7836H47.2163V16.7836ZM42.1444 47.2151H41.1444V48.2151H42.1444V47.2151ZM47.2163 47.2151V48.2151H48.2163V47.2151H47.2163ZM37.0716 32.0006L37.6716 32.8006L38.7382 32.0006L37.6716 31.2006L37.0716 32.0006ZM16.7839 16.7849L17.3839 15.9849L15.7839 14.7849V16.7849H16.7839ZM16.7839 47.2164H15.7839V49.2164L17.3839 48.0164L16.7839 47.2164ZM42.1444 17.7836H47.2163V15.7836H42.1444V17.7836ZM43.1444 47.2151V16.7836H41.1444V47.2151H43.1444ZM47.2163 46.2151H42.1444V48.2151H47.2163V46.2151ZM46.2163 16.7836V47.2151H48.2163V16.7836H46.2163ZM37.6716 31.2006L17.3839 15.9849L16.1839 17.5849L36.4716 32.8006L37.6716 31.2006ZM17.3839 48.0164L37.6716 32.8006L36.4716 31.2006L16.1839 46.4164L17.3839 48.0164ZM15.7839 16.7849V47.2164H17.7839V16.7849H15.7839Z" fill="white" mask="url(#path-1-outside-1_3107_11964)"/>
</svg>
