<svg width="64" height="64" viewBox="0 0 64 64" fill="none" xmlns="http://www.w3.org/2000/svg">
<path d="M21.6824 34.7285C19.6914 31.0536 17.7368 31.4344 16.2193 32.3108C14.465 33.4774 13.7912 34.6802 15.0053 37.7507C17.7611 44.49 21.992 52.5168 26.5385 57.6967H42.928C48.6885 53.4657 53.3261 33.2417 45.356 32.3108C44.6276 32.3108 43.4561 32.4257 42.928 32.9153C42.9371 32.5159 42.8648 32.1189 42.7155 31.7481C42.5662 31.3773 42.343 31.0405 42.0593 30.7581C41.7757 30.4756 41.4374 30.2533 41.0651 30.1047C40.6927 29.956 40.294 29.8841 39.8929 29.8931C38.8367 29.8931 38.0718 30.4976 37.4648 31.7064C37.4829 31.3048 37.4168 30.9037 37.2707 30.5289C37.1246 30.1541 36.9017 29.8137 36.6161 29.5294C36.3306 29.2451 35.9887 29.0231 35.6123 28.8776C35.2359 28.7321 34.8331 28.6663 34.4298 28.6843C33.8083 28.6934 33.2002 28.8659 32.6672 29.1844C32.1342 29.5028 31.6952 29.9558 31.3947 30.4976V17.8046C31.3947 16.8428 31.011 15.9204 30.3279 15.2403C29.6449 14.5602 28.7185 14.1781 27.7526 14.1781C26.7866 14.1781 25.8603 14.5602 25.1772 15.2403C24.4942 15.9204 24.1105 16.8428 24.1105 17.8046V39.5639L21.6824 34.7285Z" fill="white"/>
<path d="M15.7022 17.9067C15.6992 20.4065 16.5136 22.8387 18.0213 24.8326L20.116 23.2642C19.1226 21.9405 18.5154 20.3674 18.3617 18.7195C18.208 17.0716 18.5138 15.4134 19.2453 13.9287C19.9767 12.4441 21.1052 11.1912 22.5055 10.3089C23.9058 9.42665 25.5231 8.94959 27.178 8.93065C28.833 8.91171 30.4608 9.35164 31.8809 10.2016C33.301 11.0516 34.4578 12.2784 35.2231 13.7459C35.9883 15.2134 36.332 16.8642 36.2161 18.5152C36.1002 20.1661 35.5291 21.7527 34.5662 23.0988L36.7016 24.6239C37.7637 23.1397 38.4599 21.4256 38.7336 19.6211C39.0073 17.8167 38.8506 15.9732 38.2764 14.2408C37.7022 12.5085 36.7268 10.9363 35.4295 9.65261C34.1323 8.36888 32.55 7.4099 30.8118 6.85387C29.0735 6.29784 27.2284 6.16049 25.427 6.45304C23.6255 6.74558 21.9187 7.45972 20.4457 8.53724C18.9727 9.61476 17.7752 11.0251 16.9509 12.6534C16.1265 14.2817 15.6987 16.0817 15.7022 17.9067Z" fill="white"/>
</svg>
