<svg width="64" height="64" viewBox="0 0 64 64" fill="none" xmlns="http://www.w3.org/2000/svg">
<mask id="path-1-outside-1_3107_11965" maskUnits="userSpaceOnUse" x="15.2163" y="14.7836" width="33" height="35" fill="black">
<rect fill="white" x="15.2163" y="14.7836" width="33" height="35"/>
<path fill-rule="evenodd" clip-rule="evenodd" d="M16.784 16.7836H21.8559V47.2151H16.784V16.7836ZM47.2163 16.7849L26.9287 32.0006L47.2163 47.2164V16.7849Z"/>
</mask>
<path fill-rule="evenodd" clip-rule="evenodd" d="M16.784 16.7836H21.8559V47.2151H16.784V16.7836ZM47.2163 16.7849L26.9287 32.0006L47.2163 47.2164V16.7849Z" fill="white"/>
<path d="M21.8559 16.7836V15.7836H22.8559V16.7836H21.8559ZM16.784 16.7836H15.784V15.7836H16.784V16.7836ZM21.8559 47.2151H22.8559V48.2151H21.8559V47.2151ZM16.784 47.2151V48.2151H15.784V47.2151H16.784ZM26.9287 32.0006L26.3287 32.8006L25.262 32.0006L26.3287 31.2006L26.9287 32.0006ZM47.2163 16.7849L46.6163 15.9849L48.2163 14.7849V16.7849H47.2163ZM47.2163 47.2164H48.2163V49.2164L46.6163 48.0164L47.2163 47.2164ZM21.8559 17.7836H16.784V15.7836H21.8559V17.7836ZM20.8559 47.2151V16.7836H22.8559V47.2151H20.8559ZM16.784 46.2151H21.8559V48.2151H16.784V46.2151ZM17.784 16.7836V47.2151H15.784V16.7836H17.784ZM26.3287 31.2006L46.6163 15.9849L47.8163 17.5849L27.5287 32.8006L26.3287 31.2006ZM46.6163 48.0164L26.3287 32.8006L27.5287 31.2006L47.8163 46.4164L46.6163 48.0164ZM48.2163 16.7849V47.2164H46.2163V16.7849H48.2163Z" fill="white" mask="url(#path-1-outside-1_3107_11965)"/>
</svg>
