<svg width="64" height="64" viewBox="0 0 64 64" fill="none" xmlns="http://www.w3.org/2000/svg">
<circle cx="32.5" cy="31.5" r="16.5" fill="white"/>
<path d="M57.3491 26.7636L49.1812 12.6496C48.2681 11.0674 46.9553 9.75186 45.3739 8.83425C43.7924 7.91665 41.9975 7.42906 40.1683 7.42012L23.8325 7.42012C22.0009 7.41703 20.2013 7.89955 18.6178 8.81837C17.0342 9.73719 15.7235 11.0593 14.8197 12.6496L6.65175 26.7636C5.73821 28.3454 5.25732 30.1391 5.25732 31.9649C5.25732 33.7908 5.7382 35.5845 6.65175 37.1663L14.8197 51.2803C15.7328 52.8625 17.0455 54.178 18.627 55.0956C20.2085 56.0132 22.0033 56.5008 23.8325 56.5098L40.1683 56.5098C42 56.5128 43.7995 56.0303 45.3831 55.1115C46.9666 54.1927 48.2774 52.8706 49.1812 51.2803L57.3491 37.2225C58.2627 35.6305 58.7433 33.8277 58.7433 31.9931C58.7433 30.1584 58.2627 28.3556 57.3491 26.7636ZM44.1678 31.3244L43.9425 39.8654C43.938 41.7878 43.171 43.6303 41.8092 44.9897C40.4474 46.3491 38.6017 47.1147 36.6758 47.1192L28.9586 47.1192C27.7116 47.124 26.4848 46.8052 25.3985 46.194C24.3122 45.5828 23.4038 44.7002 22.7622 43.6329L22.7059 43.6329L17.1292 32.6678C17.0233 32.4467 16.9626 32.2067 16.9506 31.9619C16.9387 31.717 16.9758 31.4723 17.0597 31.2419C17.1436 31.0116 17.2727 30.8002 17.4394 30.6202C17.6061 30.4402 17.807 30.2952 18.0305 30.1937C18.4723 29.9682 18.9849 29.9243 19.4587 30.0714C19.9325 30.2186 20.3297 30.545 20.5654 30.9809L22.3116 34.411C22.3813 34.5444 22.493 34.6512 22.6295 34.715C22.7659 34.7788 22.9196 34.796 23.0669 34.7641C23.2142 34.7321 23.3468 34.6527 23.4445 34.5381C23.5421 34.4235 23.5993 34.2801 23.6072 34.1298L23.6072 20.1845C23.6072 19.6775 23.809 19.1912 24.1682 18.8327C24.5273 18.4741 25.0145 18.2727 25.5224 18.2727C26.0304 18.2727 26.5175 18.4741 26.8767 18.8327C27.2359 19.1912 27.4377 19.6775 27.4377 20.1845L27.4377 30.0812C27.4434 30.3031 27.5342 30.5144 27.6915 30.6713C27.8487 30.8283 28.0603 30.919 28.2826 30.9247C28.5138 30.9308 28.7381 30.8456 28.9068 30.6877C29.0755 30.5298 29.1751 30.3119 29.1839 30.0812L29.1839 18.6663C29.1839 18.1593 29.3857 17.673 29.7449 17.3144C30.104 16.9559 30.5912 16.7545 31.0991 16.7545C31.6071 16.7545 32.0942 16.9559 32.4534 17.3144C32.8126 17.673 33.0144 18.1593 33.0144 18.6663L33.0144 30.1374C33.0121 30.2488 33.0324 30.3595 33.074 30.4629C33.1156 30.5663 33.1778 30.6602 33.2567 30.739C33.3357 30.8178 33.4297 30.8798 33.5333 30.9214C33.6368 30.9629 33.7477 30.9832 33.8593 30.9809C34.0905 30.987 34.3148 30.9018 34.4835 30.7439C34.6522 30.5861 34.7518 30.3681 34.7606 30.1374L34.7606 20.1845C34.7606 19.6775 34.9624 19.1912 35.3216 18.8327C35.6807 18.4741 36.1679 18.2727 36.6758 18.2727C37.1838 18.2727 37.6709 18.4741 38.0301 18.8327C38.3893 19.1912 38.5911 19.6775 38.5911 20.1845L38.5911 30.1937C38.5888 30.3051 38.6091 30.4158 38.6507 30.5191C38.6924 30.6225 38.7545 30.7164 38.8334 30.7952C38.9124 30.874 39.0064 30.936 39.11 30.9776C39.2135 31.0192 39.3244 31.0394 39.436 31.0371C39.6672 31.0432 39.8915 30.9581 40.0602 30.8002C40.2289 30.6423 40.3285 30.4244 40.3373 30.1937L40.3373 22.8274C40.3564 22.3367 40.5679 21.8731 40.9261 21.5365C41.2843 21.1999 41.7607 21.0173 42.2526 21.028C42.4973 21.0182 42.7415 21.0573 42.9709 21.1428C43.2003 21.2284 43.4103 21.3588 43.5886 21.5263C43.767 21.6939 43.91 21.8952 44.0095 22.1186C44.1089 22.342 44.1627 22.583 44.1678 22.8274L44.1678 31.0934L44.1678 31.3244Z" fill="#DA1E28"/>
</svg>
