<svg width="64" height="64" viewBox="0 0 64 64" fill="none" xmlns="http://www.w3.org/2000/svg">
<path d="M41.1688 26.4695H43.4911V30.288L50 23.5714L43.4911 17V21.3594H41.1688C34.5232 21.3594 30.7705 26.3565 27.4598 30.7643C24.4866 34.7281 21.9152 38.4659 17.7687 38.4659H16.5551C15.1439 38.4659 14 39.6098 14 41.021V41.021C14 42.4321 15.1439 43.576 16.5551 43.576H17.7687C24.4143 43.576 28.167 38.2641 31.4777 33.8562C34.4509 29.8924 37.0143 26.4695 41.1688 26.4695ZM23.7393 29.3919C24.0205 29.0206 24.3098 28.6411 24.5991 28.2536C25.3062 27.3172 26.0455 26.3242 26.8491 25.3393C24.4705 23.087 21.6018 21.424 17.7687 21.424H16.4972C15.118 21.424 14 22.542 14 23.9212V23.9212C14 25.3447 15.1891 26.5039 16.6125 26.5179C16.959 26.5213 17.3436 26.5265 17.7687 26.5341C20.3804 26.5906 22.0196 27.6724 23.7393 29.3919ZM43.4911 38.5062H41.1688C38.6375 38.5062 36.6929 37.2307 34.8848 35.3336C34.708 35.5758 34.5232 35.818 34.3384 36.0602C33.5429 37.1177 32.6911 38.256 31.7509 39.3781C34.1937 41.7919 37.1509 43.6164 41.1688 43.6164H43.4911V48L50 41.4286L43.4911 34.712V38.5062Z" fill="white"/>
</svg>
