<svg width="64" height="64" viewBox="0 0 64 64" fill="none" xmlns="http://www.w3.org/2000/svg">
<path fill-rule="evenodd" clip-rule="evenodd" d="M21.146 19.45C21.0266 19.4536 20.9078 19.4324 20.7968 19.3879C20.6859 19.3433 20.5853 19.2763 20.5013 19.191L16.3566 15.0285C16.1825 14.8561 16.0838 14.6214 16.082 14.376C16.0803 14.1305 16.1758 13.8944 16.3474 13.7196C16.519 13.5448 16.7527 13.4456 16.9971 13.4439C17.2415 13.4422 17.4766 13.538 17.6507 13.7104L20.225 16.3004L20.225 7.42499C20.225 7.17966 20.322 6.94439 20.4948 6.77091C20.6675 6.59744 20.9018 6.49999 21.146 6.49999C21.3903 6.49999 21.6246 6.59744 21.7973 6.77091C21.9701 6.94439 22.0671 7.17966 22.0671 7.42499L22.0671 16.3004L24.646 13.7104C24.8201 13.538 25.0552 13.4422 25.2996 13.4439C25.544 13.4456 25.7777 13.5448 25.9493 13.7196C26.0343 13.8062 26.1015 13.9087 26.147 14.0213C26.1925 14.1339 26.2155 14.2544 26.2146 14.376C26.2129 14.6214 26.1142 14.8561 25.9401 15.0285L21.7954 19.191C21.6212 19.3596 21.388 19.4527 21.146 19.45ZM26.6386 40C25.1216 37.2 23.6323 37.4901 22.4761 38.1579C21.1394 39.0467 20.6261 39.9632 21.5511 42.3026C23.6508 47.4375 26.8744 53.5533 30.3386 57.5H42.8261C47.2152 54.2763 50.7487 38.8671 44.6761 38.1579C44.1211 38.1579 43.2285 38.2454 42.8261 38.6184C42.833 38.3141 42.778 38.0116 42.6642 37.7291C42.5505 37.4466 42.3804 37.19 42.1642 36.9748C41.9481 36.7596 41.6904 36.5902 41.4067 36.477C41.123 36.3637 40.8192 36.3089 40.5136 36.3158C39.7088 36.3158 39.1261 36.7763 38.6636 37.6974C38.6774 37.3913 38.627 37.0858 38.5157 36.8002C38.4043 36.5146 38.2345 36.2552 38.0169 36.0386C37.7994 35.822 37.5389 35.6529 37.2521 35.542C36.9653 35.4312 36.6584 35.381 36.3511 35.3947C35.8775 35.4017 35.4143 35.5331 35.0082 35.7757C34.6021 36.0184 34.2676 36.3635 34.0386 36.7763V27.1053C34.0386 26.3724 33.7462 25.6696 33.2258 25.1514C32.7054 24.6332 31.9995 24.3421 31.2636 24.3421C30.5276 24.3421 29.8218 24.6332 29.3014 25.1514C28.7809 25.6696 28.4886 26.3724 28.4886 27.1053V43.6842L26.6386 40ZM32.3311 6.5627C32.2201 6.51814 32.1013 6.497 31.9819 6.50057C31.74 6.49791 31.5067 6.59094 31.3325 6.75957L27.1878 10.9221C27.0137 11.0944 26.915 11.3291 26.9133 11.5746C26.9124 11.6961 26.9354 11.8167 26.9809 11.9293C27.0264 12.0419 27.0936 12.1444 27.1786 12.2309C27.3502 12.4057 27.5839 12.5049 27.8283 12.5066C28.0727 12.5084 28.3078 12.4125 28.4819 12.2402L31.0608 9.6502V18.5256C31.0608 18.7709 31.1579 19.0062 31.3306 19.1796C31.5033 19.3531 31.7376 19.4506 31.9819 19.4506C32.2261 19.4506 32.4604 19.3531 32.6332 19.1796C32.8059 19.0062 32.9029 18.7709 32.9029 18.5256V9.6502L35.4773 12.2402C35.6513 12.4125 35.8864 12.5084 36.1308 12.5066C36.3752 12.5049 36.6089 12.4057 36.7806 12.2309C36.9522 12.0562 37.0476 11.8201 37.0459 11.5746C37.0441 11.3291 36.9454 11.0944 36.7713 10.9221L32.6266 6.75957C32.5426 6.67428 32.442 6.60726 32.3311 6.5627Z" fill="white"/>
</svg>
