<svg width="64" height="64" viewBox="0 0 64 64" fill="none" xmlns="http://www.w3.org/2000/svg">
<path fill-rule="evenodd" clip-rule="evenodd" d="M30.7649 19.3215C30.7649 17.9786 30.2443 16.6907 29.3178 15.7412C28.3913 14.7916 27.1346 14.2582 25.8243 14.2582C24.514 14.2582 23.2573 14.7916 22.3308 15.7412C21.4043 16.6907 20.8837 17.9786 20.8837 19.3215V36.4861C19.9611 37.3318 19.2599 38.4009 18.8441 39.5958C18.4284 40.7907 18.3113 42.0733 18.5035 43.3265C18.6958 44.5797 19.1913 45.7636 19.9448 46.7701C20.6983 47.7766 21.6858 48.5736 22.8171 49.0884C23.9484 49.6032 25.1876 49.8194 26.4214 49.7172C27.6552 49.615 28.8444 49.1977 29.8804 48.5034C30.9164 47.809 31.7662 46.8598 32.3522 45.7424C32.9382 44.625 33.2417 43.3749 33.2351 42.1063C33.2296 41.0446 33.0069 39.9959 32.5814 39.0278C32.1559 38.0597 31.5371 37.1939 30.7649 36.4861V19.3215ZM28.2946 21.8531H25.8243V24.3848H28.2946V26.9164H25.8243V29.4481H28.2946V31.9797H23.354V19.3215C23.354 18.65 23.6143 18.0061 24.0775 17.5313C24.5408 17.0566 25.1691 16.7898 25.8243 16.7898C26.4795 16.7898 27.1078 17.0566 27.571 17.5313C28.0343 18.0061 28.2946 18.65 28.2946 19.3215V21.8531ZM40.6456 21.8531L35.7051 29.448H45.5862L40.6456 21.8531ZM45.5862 34.5112L40.6456 42.1062L35.7051 34.5112H45.5862Z" fill="white"/>
</svg>
