<svg width="64" height="64" viewBox="0 0 64 64" fill="none" xmlns="http://www.w3.org/2000/svg">
<path fill-rule="evenodd" clip-rule="evenodd" d="M44.3212 39.8896C43.973 39.8896 43.6327 39.7869 43.3432 39.5945C43.0537 39.4021 42.8281 39.1286 42.6948 38.8086C42.5616 38.4886 42.5267 38.1366 42.5947 37.7969C42.6626 37.4572 42.8302 37.1452 43.0764 36.9003C43.3226 36.6554 43.6363 36.4886 43.9777 36.421C44.3192 36.3534 44.6732 36.3881 44.9948 36.5207C45.3165 36.6532 45.5914 36.8776 45.7848 37.1656C45.9783 37.4536 46.0815 37.7922 46.0815 38.1385C46.0815 38.6029 45.896 39.0483 45.5659 39.3767C45.2358 39.7051 44.788 39.8896 44.3212 39.8896ZM21.437 39.8896C21.0888 39.8896 20.7485 39.7869 20.459 39.5945C20.1695 39.4021 19.9439 39.1286 19.8106 38.8086C19.6774 38.4886 19.6425 38.1366 19.7105 37.7969C19.7784 37.4572 19.946 37.1452 20.1922 36.9003C20.4384 36.6554 20.7521 36.4886 21.0935 36.421C21.435 36.3534 21.7889 36.3881 22.1106 36.5207C22.4323 36.6532 22.7072 36.8776 22.9006 37.1656C23.094 37.4536 23.1973 37.7922 23.1973 38.1385C23.1973 38.6029 23.0118 39.0483 22.6817 39.3767C22.3516 39.7051 21.9038 39.8896 21.437 39.8896ZM48.9684 26.5635C48.7817 26.5478 48.5981 26.5065 48.4227 26.4409L52.3483 23.8318C52.7358 23.5717 53.0035 23.1691 53.0927 22.7126C53.1818 22.2562 53.085 21.7832 52.8235 21.3977C52.5621 21.0122 52.1574 20.7458 51.6985 20.6572C51.2397 20.5685 50.7642 20.6648 50.3767 20.9249L45.6766 24.1295C45.0637 23.0734 44.1843 22.1947 43.1253 21.5805C42.0664 20.9662 40.8645 20.6376 39.6387 20.6272H30.2386C29.2415 20.6241 28.2551 20.8316 27.3447 21.2362C26.4343 21.6407 25.6207 22.2329 24.9576 22.9737L24.0246 24.0069C22.2643 26.0557 20.7504 27.5091 18.7437 27.7718L14.7125 28.1045C13.6471 28.2526 12.6716 28.7792 11.9662 29.5872C11.2608 30.3951 10.8732 31.4297 10.875 32.4999V35.4768C10.875 36.6471 11.3424 37.7696 12.1743 38.5971C13.0062 39.4247 14.1345 39.8896 15.311 39.8896H16.4728C16.8429 40.9038 17.5178 41.78 18.406 42.3993C19.2941 43.0185 20.3524 43.3507 21.437 43.3507C22.5215 43.3507 23.5798 43.0185 24.4679 42.3993C25.3561 41.78 26.031 40.9038 26.4011 39.8896H39.3571C39.7236 40.9097 40.3981 41.7922 41.2884 42.4162C42.1786 43.0401 43.241 43.375 44.33 43.375C45.419 43.375 46.4814 43.0401 47.3716 42.4162C48.2618 41.7922 48.9364 40.9097 49.3029 39.8896C50.3578 39.7807 51.334 39.2842 52.0405 38.4972C52.7469 37.7102 53.1328 36.6894 53.1228 35.6344V30.9764C53.1209 29.8542 52.691 28.7745 51.9199 27.9555C51.1488 27.1364 50.0939 26.6389 48.9684 26.5635" fill="white"/>
</svg>
