<svg width="64" height="64" viewBox="0 0 64 64" fill="none" xmlns="http://www.w3.org/2000/svg">
<path fill-rule="evenodd" clip-rule="evenodd" d="M21.5845 32C20.4343 32 19.5 32.8687 19.5 33.9387V45.5614C19.5 46.6311 20.4341 47.5 21.5845 47.5H42.4155C43.5657 47.5 44.5 46.6313 44.5 45.5614V33.9387C44.5 32.8689 43.5659 32 42.4155 32H41.7204V25.5424C41.7204 20.5606 37.359 16.5 31.9975 16.5C26.6407 16.5 22.2793 20.5606 22.2793 25.5424C22.2793 26.2498 22.9084 26.8348 23.6642 26.8348H25.0539C25.8144 26.8348 26.4435 26.2498 26.4435 25.5424C26.4435 22.6957 28.9412 20.3772 31.9975 20.3772C35.0585 20.3772 37.5561 22.7001 37.5561 25.5424V32H21.5845Z" fill="white"/>
</svg>
