<svg width="64" height="64" viewBox="0 0 64 64" fill="none" xmlns="http://www.w3.org/2000/svg">
<path fill-rule="evenodd" clip-rule="evenodd" d="M40.0231 24.8091C40.0231 29.3479 36.3437 33.0273 31.8049 33.0273C27.2661 33.0273 23.5867 29.3479 23.5867 24.8091C23.5867 20.2703 27.2661 16.5909 31.8049 16.5909C36.3437 16.5909 40.0231 20.2703 40.0231 24.8091ZM45.2514 47.1122C45.6559 46.9206 46.0138 46.6432 46.3002 46.2993C46.5795 45.9591 46.7827 45.5631 46.8961 45.1378C47.0095 44.7125 47.0305 44.2679 46.9577 43.8338C46.5585 41.4143 45.5853 39.1257 44.1197 37.1596C42.6541 35.1936 40.7387 33.6073 38.534 32.5338C36.6607 34.1751 34.2549 35.08 31.7642 35.08C29.2736 35.08 26.8678 34.1751 24.9945 32.5338C22.7897 33.6073 20.8744 35.1936 19.4087 37.1596C17.9431 39.1257 16.97 41.4143 16.5708 43.8338C16.5555 43.9978 16.5555 44.1629 16.5708 44.3269C16.5708 45.1443 16.8955 45.9282 17.4734 46.5061C18.0514 47.0841 18.8353 47.4088 19.6526 47.4088L43.958 47.4088C44.4056 47.405 44.8469 47.3038 45.2514 47.1122Z" fill="white"/>
</svg>
