<svg width="64" height="64" viewBox="0 0 64 64" fill="none" xmlns="http://www.w3.org/2000/svg">
<mask id="path-1-outside-1_3107_11963" maskUnits="userSpaceOnUse" x="13.6221" y="8.71234" width="37" height="46" fill="black">
<rect fill="white" x="13.6221" y="8.71234" width="37" height="46"/>
<path fill-rule="evenodd" clip-rule="evenodd" d="M14.6221 24.3921H24.7659L37.4457 11.7123V52.2876L24.7659 39.6078H14.6221V24.3921ZM42.52 21.8564V42.144L48.7779 33.8002C49.5779 32.7335 49.5779 31.2669 48.7779 30.2002L42.52 21.8564Z"/>
</mask>
<path fill-rule="evenodd" clip-rule="evenodd" d="M14.6221 24.3921H24.7659L37.4457 11.7123V52.2876L24.7659 39.6078H14.6221V24.3921ZM42.52 21.8564V42.144L48.7779 33.8002C49.5779 32.7335 49.5779 31.2669 48.7779 30.2002L42.52 21.8564Z" fill="white"/>
<path d="M24.7659 24.3921V25.3921H25.1801L25.473 25.0992L24.7659 24.3921ZM14.6221 24.3921V23.3921H13.6221V24.3921H14.6221ZM37.4457 11.7123H38.4457V9.29813L36.7386 11.0052L37.4457 11.7123ZM37.4457 52.2876L36.7386 52.9947L38.4457 54.7018V52.2876H37.4457ZM24.7659 39.6078L25.473 38.9007L25.1801 38.6078H24.7659V39.6078ZM14.6221 39.6078H13.6221V40.6078H14.6221V39.6078ZM42.52 42.144H41.52V45.144L43.32 42.744L42.52 42.144ZM42.52 21.8564L43.32 21.2564L41.52 18.8564V21.8564H42.52ZM48.7779 33.8002L49.5779 34.4002L49.5779 34.4002L48.7779 33.8002ZM48.7779 30.2002L49.5779 29.6002L49.5779 29.6002L48.7779 30.2002ZM24.7659 23.3921H14.6221V25.3921H24.7659V23.3921ZM36.7386 11.0052L24.0588 23.685L25.473 25.0992L38.1528 12.4194L36.7386 11.0052ZM38.4457 52.2876V11.7123H36.4457V52.2876H38.4457ZM24.0588 40.3149L36.7386 52.9947L38.1528 51.5805L25.473 38.9007L24.0588 40.3149ZM14.6221 40.6078H24.7659V38.6078H14.6221V40.6078ZM13.6221 24.3921V39.6078H15.6221V24.3921H13.6221ZM43.52 42.144V21.8564H41.52V42.144H43.52ZM47.9779 33.2002L41.72 41.544L43.32 42.744L49.5779 34.4002L47.9779 33.2002ZM47.9779 30.8002C48.5112 31.5113 48.5112 32.4891 47.9779 33.2002L49.5779 34.4002C50.6445 32.978 50.6445 31.0224 49.5779 29.6002L47.9779 30.8002ZM41.72 22.4564L47.9779 30.8002L49.5779 29.6002L43.32 21.2564L41.72 22.4564Z" fill="white" mask="url(#path-1-outside-1_3107_11963)"/>
</svg>
