<svg width="64" height="64" viewBox="0 0 64 64" fill="none" xmlns="http://www.w3.org/2000/svg">
<path fill-rule="evenodd" clip-rule="evenodd" d="M39.9372 17.6005C40.326 17.5919 40.7101 17.6864 41.0505 17.8742C41.3884 18.0659 41.6697 18.3435 41.8658 18.6788C42.0618 19.0142 42.1658 19.3955 42.167 19.784L42.167 44.856C42.1746 45.2707 42.0624 45.6788 41.8438 46.0312C41.5354 46.5201 41.0457 46.8668 40.4821 46.9953C39.9185 47.1239 39.327 47.0237 38.8371 46.7168L29.4351 40.9287L29.4351 23.7113L38.8371 17.9232C39.1689 17.7205 39.5485 17.6091 39.9372 17.6005ZM21.6001 37.021L21.6001 27.619C21.6001 26.7878 21.9303 25.9907 22.518 25.4029C23.1058 24.8152 23.9029 24.485 24.7341 24.485L27.4763 24.485L27.4763 40.155L24.7341 40.155C24.3225 40.155 23.915 40.0739 23.5348 39.9164C23.1545 39.7589 22.809 39.5281 22.518 39.2371C22.227 38.9461 21.9962 38.6006 21.8387 38.2203C21.6812 37.8401 21.6001 37.4326 21.6001 37.021Z" fill="white"/>
</svg>
