<svg width="64" height="64" viewBox="0 0 64 64" fill="none" xmlns="http://www.w3.org/2000/svg">
<path d="M18.3086 22.5781H20.7891L26.7461 37.5H24.2461L23.1523 34.6582H15.8867L14.793 37.5H12.3711L18.3086 22.5781ZM22.293 32.4219L19.5098 25.4785L16.7266 32.4219H22.293ZM35.4277 22.6758H37.8105L29.5098 37.5H27.127L35.4277 22.6758ZM45.4473 37.7246C44.1322 37.7246 43.0026 37.5586 42.0586 37.2266C41.1211 36.8945 40.3496 36.4062 39.7441 35.7617C39.1387 35.1172 38.6927 34.3197 38.4062 33.3691C38.1263 32.4186 37.9863 31.3216 37.9863 30.0781C37.9863 28.763 38.1556 27.627 38.4941 26.6699C38.8327 25.7064 39.3275 24.9121 39.9785 24.2871C40.6296 23.6621 41.4238 23.1999 42.3613 22.9004C43.3053 22.5944 44.3796 22.4414 45.584 22.4414C46.7819 22.4414 47.8268 22.6107 48.7188 22.9492C49.6172 23.2878 50.4049 23.7923 51.082 24.4629L49.3242 26.2012C48.8359 25.7389 48.2891 25.3874 47.6836 25.1465C47.0846 24.8991 46.3783 24.7754 45.5645 24.7754C43.8132 24.7754 42.5176 25.2246 41.6777 26.123C40.8444 27.015 40.4277 28.3398 40.4277 30.0977C40.4277 30.9635 40.5221 31.7285 40.7109 32.3926C40.9062 33.0566 41.209 33.6165 41.6191 34.0723C42.0358 34.5215 42.5697 34.8633 43.2207 35.0977C43.8783 35.3255 44.666 35.4395 45.584 35.4395C46.1048 35.4395 46.5573 35.4004 46.9414 35.3223C47.3255 35.2441 47.6673 35.1367 47.9668 35C48.2663 34.8633 48.5332 34.7038 48.7676 34.5215C49.002 34.3392 49.2331 34.1439 49.4609 33.9355L51.1895 35.5762C50.916 35.8561 50.6068 36.1263 50.2617 36.3867C49.9232 36.6471 49.526 36.8783 49.0703 37.0801C48.6146 37.2754 48.0905 37.4316 47.498 37.5488C46.9121 37.666 46.2285 37.7246 45.4473 37.7246Z" fill="black"/>
</svg>
