<svg width="64" height="64" viewBox="0 0 64 64" fill="none" xmlns="http://www.w3.org/2000/svg">
<g id="icon 64 / fan speed">
<path id="Union" fill-rule="evenodd" clip-rule="evenodd" d="M42.6721 20.0438C42.8564 19.8649 42.9986 19.6446 43.0876 19.3999C43.1767 19.1553 43.2102 18.8927 43.1857 18.6325C43.1611 18.3723 43.0791 18.1214 42.9461 17.8992C42.813 17.6769 42.6323 17.4892 42.418 17.3505C40.7899 16.3236 38.8789 15.8827 36.9831 16.0966C35.0873 16.3104 33.3132 17.1671 31.9375 18.5329C30.578 19.9442 29.7191 21.7889 29.5 23.7681C29.281 25.7472 29.7146 27.7449 30.7307 29.4374C30.8696 29.6529 31.053 29.8338 31.2678 29.9669C31.4826 30.1001 31.7233 30.1822 31.9726 30.2074C32.2218 30.2325 32.4733 30.2001 32.709 30.1123C32.9446 30.0246 33.1584 29.8838 33.3349 29.7001C35.431 27.5981 40.3854 22.4743 42.6721 20.0438ZM19.8808 20.5339C20.1174 20.626 20.3304 20.773 20.5033 20.9637C21.2182 21.7029 22.1563 22.6792 23.1766 23.7409L23.1767 23.741C25.5107 26.1699 28.2743 29.0459 29.777 30.5543C29.9546 30.7369 30.0907 30.958 30.1756 31.2017C30.2604 31.4454 30.2918 31.7055 30.2675 31.9633C30.2432 32.221 30.1637 32.47 30.035 32.6921C29.9062 32.9142 29.7313 33.1039 29.5229 33.2476C27.91 34.324 25.9882 34.794 24.0799 34.5787C22.1716 34.3634 20.393 33.4759 19.0424 32.0652C17.7217 30.6424 16.8934 28.8077 16.6866 26.8471C16.4798 24.8865 16.9061 22.9102 17.8991 21.2264C18.0332 21.0048 18.2147 20.818 18.4296 20.6803C18.6445 20.5427 18.8871 20.4579 19.1387 20.4325C19.3903 20.4071 19.6442 20.4418 19.8808 20.5339ZM44.1192 43.3335C43.8826 43.2415 43.6696 43.0944 43.4966 42.9038L34.2229 33.3131C34.0374 33.1349 33.8942 32.9148 33.8044 32.6699C33.7146 32.4251 33.6807 32.1621 33.7053 31.9015C33.7299 31.6408 33.8123 31.3896 33.9462 31.1673C34.08 30.945 34.2617 30.7577 34.477 30.6199C36.0853 29.5288 38.0104 29.0502 39.9225 29.2659C41.8345 29.4816 43.6145 30.3783 44.9575 31.8023C46.2782 33.225 47.1065 35.0598 47.3134 37.0204C47.5202 38.981 47.0938 40.9573 46.1008 42.641C45.9667 42.8627 45.7852 43.0495 45.5703 43.1871C45.3554 43.3248 45.1128 43.4095 44.8612 43.4349C44.6096 43.4603 44.3557 43.4256 44.1192 43.3335ZM21.0407 44.6C21.1297 44.3554 21.2719 44.1351 21.4562 43.9562L30.7299 34.3655C30.9064 34.1819 31.1202 34.0411 31.3559 33.9533C31.5915 33.8656 31.843 33.8331 32.0922 33.8583C32.3415 33.8834 32.5822 33.9656 32.797 34.0987C33.0118 34.2319 33.1952 34.4128 33.3341 34.6283C34.375 36.2964 34.8294 38.2839 34.6212 40.2574C34.4131 42.2309 33.5549 44.0703 32.1908 45.4671C30.8151 46.8329 29.041 47.6896 27.1452 47.9034C25.2494 48.1173 23.3384 47.6764 21.7103 46.6495C21.496 46.5108 21.3154 46.3231 21.1823 46.1008C21.0492 45.8786 20.9672 45.6277 20.9427 45.3675C20.9181 45.1073 20.9517 44.8447 21.0407 44.6Z" fill="black"/>
</g>
</svg>
