<svg width="64" height="64" viewBox="0 0 64 64" fill="none" xmlns="http://www.w3.org/2000/svg">
<path fill-rule="evenodd" clip-rule="evenodd" d="M38.456 22.4985L35.9695 22.4985C35.6858 22.4804 35.4056 22.5687 35.1834 22.746C34.9612 22.9233 34.813 23.177 34.7677 23.4576C34.7224 23.7382 34.7832 24.0257 34.9382 24.2639C35.0933 24.5022 35.3315 24.6741 35.6065 24.7463L37.0984 25.1989L36.4022 30.2017C36.3482 30.5743 36.3731 30.9541 36.4752 31.3164C36.5773 31.6788 36.7543 32.0157 36.9947 32.3054C37.2352 32.595 37.5337 32.831 37.8711 32.9981C38.2085 33.1651 38.5772 33.2595 38.9533 33.2751L39.9479 33.2751C40.9425 33.2751 42.5886 32.1313 42.8522 31.0223C43.2053 29.7044 41.6039 29.3712 41.2757 30.2017C40.7784 31.5594 39.1423 31.2759 39.2865 30.2017L40.1021 23.9904C40.2264 23.0356 39.4059 22.4985 38.456 22.4985ZM39.8355 17.3743C39.5187 17.1554 39.1444 17.035 38.7594 17.0282L38.7395 17.0431C38.2239 17.0481 37.7303 17.2531 37.3629 17.6149C36.9956 17.9767 36.783 18.4671 36.7702 18.9826C36.7702 19.3676 36.884 19.7441 37.0973 20.0647C37.3105 20.3853 37.6137 20.6357 37.9688 20.7846C38.3239 20.9335 38.7151 20.9742 39.0932 20.9016C39.4714 20.8289 39.8196 20.6462 40.0943 20.3764C40.3689 20.1065 40.5578 19.7615 40.6371 19.3847C40.7164 19.0079 40.6826 18.6161 40.54 18.2585C40.3974 17.9008 40.1523 17.5932 39.8355 17.3743ZM31.9242 15.1226C33.8941 13.7585 36.229 13.0189 38.6251 13L38.6052 13.0149C40.224 13.0053 41.829 13.3128 43.3296 13.92C44.8176 14.4974 46.1751 15.3663 47.3224 16.4758C48.4697 17.5853 49.3837 18.913 50.0106 20.3808C50.6374 21.8486 50.9646 23.4269 50.9727 25.0229C50.9809 26.6189 50.6699 28.2005 50.0581 29.6746C49.4815 31.1598 48.6143 32.515 47.5074 33.6609C46.4005 34.8068 45.076 35.7202 43.6116 36.3478C42.1471 36.9753 40.5722 37.3043 38.979 37.3155C37.3859 37.3267 35.8065 37.0199 34.3334 36.4131C33.1248 35.9268 31.999 35.2557 30.9965 34.4238L27.018 34.9211C25.919 35.0604 25.4963 34.1205 26.1129 33.2303L27.9231 30.5946C27.1603 29.057 26.735 27.3741 26.6758 25.6587C26.6166 23.9433 26.9249 22.235 27.58 20.6485C28.4405 18.4122 29.9543 16.4868 31.9242 15.1226ZM17.4105 19.1663C18.4415 18.6091 19.6168 18.3768 20.7822 18.4999C21.7371 18.6591 22.4383 19.0668 22.6024 20.1957L23.7213 27.8094C23.7554 28.0511 23.714 28.2974 23.6027 28.5147C23.4915 28.7319 23.3157 28.9094 23.0997 29.0229L21.2298 30.0175C19.6534 30.8778 19.0466 33.1555 19.9468 34.8562L22.4084 39.516C23.3036 41.2167 25.5414 42.0174 27.1228 41.1869L29.0076 40.1923C29.2208 40.0788 29.4638 40.0342 29.7033 40.0645C29.9429 40.0947 30.1672 40.1985 30.3454 40.3614L35.9699 45.5582C36.3128 45.8632 36.5398 46.2773 36.6123 46.7305C36.6848 47.1837 36.5984 47.648 36.3677 48.0447C35.8177 49.0659 34.9693 49.8951 33.9359 50.4218C33.6161 50.5944 33.2836 50.7424 32.9413 50.8644C30.037 51.8839 26.5758 50.7749 23.403 48.5669C20.2481 46.3319 17.6429 43.4086 15.7843 40.0182C14.0338 36.5686 13.09 32.7663 13.0243 28.8985C12.9845 25.0295 14.0189 21.5434 16.5054 19.7233C16.7935 19.5163 17.096 19.3302 17.4105 19.1663Z" fill="black"/>
</svg>
