<svg width="64" height="64" viewBox="0 0 64 64" fill="none" xmlns="http://www.w3.org/2000/svg">
<path fill-rule="evenodd" clip-rule="evenodd" d="M49 28.7686C49 26.9385 48.116 25.2194 46.6268 24.1558C43.8048 22.1386 38.4917 18.3411 35.2935 16.0562C33.3237 14.6479 30.6763 14.6479 28.7065 16.0562C25.5083 18.3411 20.1952 22.1386 17.3732 24.1558C15.884 25.2194 15 26.9385 15 28.7686C15 32.9131 15 41.5025 15 45.5982C15 47.4771 16.5221 49 18.4 49C18.4 49 23.0081 49 25.2 49C25.8256 49 26.3333 48.492 26.3333 47.8661C26.3333 44.792 26.3333 36.5269 26.3333 36.5269C26.3333 35.901 26.8411 35.393 27.4667 35.393H36.5333C37.1589 35.393 37.6667 35.901 37.6667 36.5269C37.6667 36.5269 37.6667 44.792 37.6667 47.8661C37.6667 48.492 38.1744 49 38.8 49C40.6269 49 44.1652 49 45.6 49C47.4779 49 49 47.4771 49 45.5982V28.7686Z" fill="black"/>
</svg>
