<svg width="64" height="64" viewBox="0 0 64 64" fill="none" xmlns="http://www.w3.org/2000/svg">
<path d="M45.5206 27.9188C44.1071 21.5049 39.2674 16.6453 31.9619 16.6453C24.6588 16.6453 19.8852 21.5017 18.4918 27.9124C18.7481 29.1442 18.5855 30.8956 18.5855 32.8386C18.5855 36.1126 19.0472 38.8424 17.1886 39.4594C18.3105 43.0395 20.9018 45.9829 24.5972 46.96C25.0367 45.9323 26.0488 45.213 27.2273 45.213C28.8088 45.213 30.0909 46.5085 30.0909 48.1065C30.0909 49.7045 28.8088 51 27.2273 51C25.9284 51 24.8315 50.1263 24.4809 48.9287C19.5073 47.8208 16.1578 43.849 14.8973 39.3581C12.6522 38.5835 11 35.9581 11 32.8386C11 29.6512 12.7249 26.9797 15.0447 26.2712C16.9678 18.8195 22.7797 13 31.9619 13C41.1317 13 46.9403 18.8038 48.8713 26.2412C51.232 26.9011 53 29.6043 53 32.8386C53 36.5673 50.6502 39.5901 47.7515 39.5901C44.8528 39.5901 45.4058 36.5673 45.4058 32.8386C45.4058 30.8989 45.2562 29.1502 45.5206 27.9188ZM32 43.5994C28.8062 43.5994 26.2171 41.2287 26.2171 38.3043H37.7829C37.7829 41.2287 35.1938 43.5994 32 43.5994ZM38.125 32.4152C36.6753 32.4152 35.5 31.2299 35.5 29.7677C35.5 28.3055 36.6753 27.1202 38.125 27.1202C39.5747 27.1202 40.75 28.3055 40.75 29.7677C40.75 31.2299 39.5747 32.4152 38.125 32.4152ZM25.875 32.4152C24.4253 32.4152 23.25 31.2299 23.25 29.7677C23.25 28.3055 24.4253 27.1202 25.875 27.1202C27.3247 27.1202 28.5 28.3055 28.5 29.7677C28.5 31.2299 27.3247 32.4152 25.875 32.4152Z" fill="black"/>
</svg>
