<svg width="64" height="64" viewBox="0 0 64 64" fill="none" xmlns="http://www.w3.org/2000/svg">
<path fill-rule="evenodd" clip-rule="evenodd" d="M31.2445 34.4846C31.4817 34.5951 31.7386 34.6582 32.0005 34.6701C32.2623 34.6582 32.5192 34.5951 32.7564 34.4846C32.9937 34.3741 33.2067 34.2183 33.3833 34.0261C33.5599 33.8339 33.6965 33.609 33.7855 33.3643C33.8745 33.1196 33.914 32.8599 33.9018 32.6001V19.0611C33.924 18.5379 33.7363 18.0272 33.38 17.6409C33.0236 17.2547 32.5276 17.0242 32.0005 17.0001C31.4733 17.0242 30.9773 17.2547 30.6209 17.6409C30.2646 18.0272 30.0769 18.5379 30.0991 19.0611V32.6001C30.0869 32.8599 30.1264 33.1196 30.2154 33.3643C30.3044 33.609 30.441 33.8339 30.6176 34.0261C30.7942 34.2183 31.0072 34.3741 31.2445 34.4846ZM18.5 33.3289C18.5 40.8679 24.5578 46.9999 32 46.9999C39.4423 46.9999 45.5 40.8679 45.5 33.3289C45.5129 31.2287 45.038 29.1538 44.1122 27.2653C43.1864 25.3767 41.8346 23.7252 40.1617 22.4389L40.1103 22.3999C39.9113 22.2555 39.6855 22.1514 39.4459 22.0935C39.2063 22.0357 38.9575 22.0253 38.7139 22.0629C38.4702 22.1005 38.2364 22.1854 38.0258 22.3127C37.8152 22.44 37.6319 22.6073 37.4865 22.8049C37.1818 23.2138 37.0496 23.7244 37.1179 24.2285C37.1861 24.7325 37.4496 25.1904 37.8522 25.5049C39.0557 26.428 40.0284 27.6142 40.6948 28.9712C41.3611 30.3282 41.7032 31.8194 41.6943 33.3289C41.6943 38.7439 37.3444 43.1479 32 43.1479C26.6556 43.1479 22.3058 38.7289 22.3058 33.3289C22.2956 31.8201 22.6361 30.3293 23.3009 28.9723C23.9657 27.6154 24.9368 26.4288 26.1387 25.5049C26.5414 25.1904 26.8048 24.7325 26.8731 24.2285C26.9414 23.7244 26.8092 23.2138 26.5045 22.8049C26.4944 22.7902 26.4833 22.7762 26.4713 22.7629C26.3202 22.5696 26.1322 22.4078 25.918 22.2868C25.7038 22.1657 25.4677 22.0878 25.2232 22.0574C24.9786 22.027 24.7304 22.0448 24.4928 22.1098C24.2551 22.1747 24.0328 22.2855 23.8384 22.4359C22.1651 23.7225 20.813 25.3745 19.8872 27.2636C18.9614 29.1527 18.4867 31.2282 18.5 33.3289Z" fill="black"/>
</svg>
