<svg width="64" height="64" viewBox="0 0 64 64" fill="none" xmlns="http://www.w3.org/2000/svg">
<path d="M48.1534 25.1204C47.1444 25.1204 46.3264 25.9385 46.3264 26.9475V37.9098C46.3264 39.9247 44.6871 41.5639 42.6722 41.5639H25.6462V37.9248L16.1799 43.391L25.6462 48.8571V45.218H42.6722C46.7019 45.218 49.9805 41.9395 49.9805 37.9098V26.9475C49.9805 25.9385 49.1624 25.1204 48.1534 25.1204Z" fill="black"/>
<path d="M17.0934 37.9097V26.9474C17.0934 24.9325 18.7327 23.2933 20.7476 23.2933H37.7736V26.9324L47.2399 21.4662L37.7736 16V19.6391H20.7476C16.7179 19.6391 13.4393 22.9177 13.4393 26.9474V37.9097C13.4393 38.9187 14.2574 39.7367 15.2664 39.7367C16.2754 39.7367 17.0934 38.9187 17.0934 37.9097Z" fill="black"/>
</svg>
