<svg width="64" height="64" viewBox="0 0 64 64" fill="none" xmlns="http://www.w3.org/2000/svg">
<path fill-rule="evenodd" clip-rule="evenodd" d="M21.1462 19.45C21.0268 19.4536 20.9079 19.4324 20.797 19.3879C20.686 19.3433 20.5854 19.2763 20.5014 19.191L16.3567 15.0285C16.1826 14.8561 16.0839 14.6214 16.0822 14.376C16.0804 14.1305 16.1759 13.8944 16.3475 13.7196C16.5191 13.5448 16.7528 13.4456 16.9972 13.4439C17.2416 13.4422 17.4767 13.538 17.6508 13.7104L20.2251 16.3004L20.2251 7.42499C20.2251 7.17966 20.3222 6.94439 20.4949 6.77091C20.6676 6.59744 20.9019 6.49999 21.1462 6.49999C21.3904 6.49999 21.6247 6.59744 21.7974 6.77091C21.9702 6.94439 22.0672 7.17966 22.0672 7.42499L22.0672 16.3004L24.6462 13.7104C24.8202 13.538 25.0553 13.4422 25.2997 13.4439C25.5441 13.4456 25.7779 13.5448 25.9495 13.7196C26.0344 13.8062 26.1016 13.9087 26.1471 14.0213C26.1926 14.1339 26.2156 14.2544 26.2148 14.376C26.213 14.6214 26.1143 14.8561 25.9402 15.0285L21.7955 19.191C21.6213 19.3596 21.3881 19.4527 21.1462 19.45ZM26.6387 40C25.1217 37.2 23.6324 37.4901 22.4762 38.1579C21.1396 39.0467 20.6262 39.9632 21.5512 42.3026C23.6509 47.4375 26.8746 53.5533 30.3387 57.5H42.8262C47.2153 54.2763 50.7488 38.8671 44.6762 38.1579C44.1212 38.1579 43.2286 38.2454 42.8262 38.6184C42.8332 38.3141 42.7781 38.0116 42.6643 37.7291C42.5506 37.4466 42.3805 37.19 42.1644 36.9748C41.9482 36.7596 41.6905 36.5902 41.4068 36.477C41.1231 36.3637 40.8193 36.3089 40.5137 36.3158C39.7089 36.3158 39.1262 36.7763 38.6637 37.6974C38.6775 37.3913 38.6271 37.0858 38.5158 36.8002C38.4045 36.5146 38.2346 36.2552 38.0171 36.0386C37.7995 35.822 37.539 35.6529 37.2522 35.542C36.9654 35.4312 36.6586 35.381 36.3512 35.3947C35.8777 35.4017 35.4144 35.5331 35.0083 35.7757C34.6022 36.0184 34.2677 36.3635 34.0387 36.7763V27.1053C34.0387 26.3724 33.7463 25.6696 33.2259 25.1514C32.7055 24.6332 31.9997 24.3421 31.2637 24.3421C30.5277 24.3421 29.8219 24.6332 29.3015 25.1514C28.7811 25.6696 28.4887 26.3724 28.4887 27.1053V43.6842L26.6387 40ZM32.3312 6.5627C32.2203 6.51814 32.1014 6.497 31.982 6.50057C31.7401 6.49791 31.5068 6.59094 31.3326 6.75957L27.1879 10.9221C27.0139 11.0944 26.9151 11.3291 26.9134 11.5746C26.9125 11.6961 26.9355 11.8167 26.981 11.9293C27.0266 12.0419 27.0937 12.1444 27.1787 12.2309C27.3503 12.4057 27.584 12.5049 27.8284 12.5066C28.0729 12.5084 28.3079 12.4125 28.482 12.2402L31.0609 9.6502V18.5256C31.0609 18.7709 31.158 19.0062 31.3307 19.1796C31.5034 19.3531 31.7377 19.4506 31.982 19.4506C32.2263 19.4506 32.4605 19.3531 32.6333 19.1796C32.806 19.0062 32.903 18.7709 32.903 18.5256V9.6502L35.4774 12.2402C35.6514 12.4125 35.8865 12.5084 36.1309 12.5066C36.3754 12.5049 36.6091 12.4057 36.7807 12.2309C36.9523 12.0562 37.0477 11.8201 37.046 11.5746C37.0443 11.3291 36.9455 11.0944 36.7715 10.9221L32.6267 6.75957C32.5427 6.67428 32.4421 6.60726 32.3312 6.5627Z" fill="black"/>
</svg>
