<svg width="64" height="64" viewBox="0 0 64 64" fill="none" xmlns="http://www.w3.org/2000/svg">
<path fill-rule="evenodd" clip-rule="evenodd" d="M11.5 15C8.73858 15 6.5 17.2386 6.5 20V44C6.5 46.7614 8.73858 49 11.5 49H52.5C55.2614 49 57.5 46.7614 57.5 44V20C57.5 17.2386 55.2614 15 52.5 15H11.5ZM19.6373 39.5206C20.6908 39.942 22.0268 40.1527 23.6454 40.1527C24.402 40.1527 25.0772 40.0952 25.6709 39.9803C26.2743 39.875 26.825 39.7169 27.323 39.5062C27.8306 39.2955 28.3047 39.0322 28.7452 38.7161C29.1858 38.4001 29.6263 38.0361 30.0669 37.6243L27.7683 35.4551C27.4619 35.7328 27.165 35.9771 26.8777 36.1878C26.5904 36.3889 26.2887 36.5565 25.9726 36.6906C25.6566 36.8246 25.3214 36.9252 24.967 36.9922C24.6127 37.0593 24.2248 37.0928 23.8034 37.0928C22.8361 37.0928 22.0364 36.9683 21.4043 36.7193C20.7818 36.4607 20.2886 36.1016 19.9247 35.6419C19.5607 35.1726 19.3069 34.6075 19.1633 33.9467C19.0196 33.2763 18.9478 32.5245 18.9478 31.6913C18.9478 30.8581 19.0196 30.111 19.1633 29.4502C19.3165 28.7894 19.5751 28.2291 19.939 27.7694C20.3125 27.3001 20.8105 26.9458 21.4331 26.7064C22.0651 26.4574 22.8553 26.3329 23.8034 26.3329C24.311 26.3329 24.7563 26.3807 25.1394 26.4765C25.5321 26.5723 25.8769 26.6968 26.1737 26.85C26.4802 26.9937 26.7484 27.1613 26.9782 27.3528C27.2081 27.5444 27.414 27.7359 27.596 27.9275L30.0956 25.5715C29.7604 25.1884 29.3773 24.8388 28.9463 24.5228C28.5249 24.2067 28.0557 23.9386 27.5385 23.7183C27.0213 23.4884 26.4515 23.3113 25.829 23.1868C25.2065 23.0623 24.5313 23 23.8034 23C22.137 23 20.7674 23.2155 19.6948 23.6465C18.6222 24.0774 17.7746 24.676 17.1521 25.4422C16.5295 26.1988 16.0986 27.1038 15.8591 28.1573C15.6197 29.2108 15.5 30.3601 15.5 31.6051C15.5 32.8597 15.6197 34.009 15.8591 35.0529C16.1081 36.0968 16.5391 36.997 17.1521 37.7536C17.765 38.5102 18.5934 39.0992 19.6373 39.5206ZM38.7806 39.5206C39.834 39.942 41.1701 40.1527 42.7886 40.1527C43.5452 40.1527 44.2204 40.0952 44.8142 39.9803C45.4175 39.875 45.9682 39.7169 46.4662 39.5062C46.9738 39.2955 47.4479 39.0322 47.8884 38.7161C48.329 38.4001 48.7695 38.0361 49.2101 37.6243L46.9116 35.4551C46.6051 35.7328 46.3082 35.9771 46.0209 36.1878C45.7336 36.3889 45.4319 36.5565 45.1159 36.6906C44.7998 36.8246 44.4646 36.9252 44.1102 36.9922C43.7559 37.0593 43.368 37.0928 42.9466 37.0928C41.9793 37.0928 41.1796 36.9683 40.5475 36.7193C39.925 36.4607 39.4318 36.1016 39.0679 35.6419C38.7039 35.1726 38.4501 34.6075 38.3065 33.9467C38.1628 33.2763 38.091 32.5245 38.091 31.6913C38.091 30.8581 38.1628 30.111 38.3065 29.4502C38.4597 28.7894 38.7183 28.2291 39.0822 27.7694C39.4557 27.3001 39.9538 26.9458 40.5763 26.7064C41.2084 26.4574 41.9985 26.3329 42.9466 26.3329C43.4542 26.3329 43.8996 26.3807 44.2826 26.4765C44.6753 26.5723 45.0201 26.6968 45.317 26.85C45.6234 26.9937 45.8916 27.1613 46.1215 27.3528C46.3513 27.5444 46.5572 27.7359 46.7392 27.9275L49.2388 25.5715C48.9036 25.1884 48.5205 24.8388 48.0896 24.5228C47.6682 24.2067 47.1989 23.9386 46.6817 23.7183C46.1646 23.4884 45.5947 23.3113 44.9722 23.1868C44.3497 23.0623 43.6745 23 42.9466 23C41.2802 23 39.9107 23.2155 38.838 23.6465C37.7654 24.0774 36.9178 24.676 36.2953 25.4422C35.6728 26.1988 35.2418 27.1038 35.0024 28.1573C34.7629 29.2108 34.6432 30.3601 34.6432 31.6051C34.6432 32.8597 34.7629 34.009 35.0024 35.0529C35.2514 36.0968 35.6823 36.997 36.2953 37.7536C36.9082 38.5102 37.7366 39.0992 38.7806 39.5206Z" fill="black"/>
</svg>
