<svg width="64" height="64" viewBox="0 0 64 64" fill="none" xmlns="http://www.w3.org/2000/svg">
<g id="icon 64 / temp">
<path id="Union" fill-rule="evenodd" clip-rule="evenodd" d="M30.765 19.3215C30.765 17.9786 30.2445 16.6907 29.3179 15.7412C28.3914 14.7916 27.1347 14.2582 25.8244 14.2582C24.5141 14.2582 23.2575 14.7916 22.3309 15.7412C21.4044 16.6907 20.8839 17.9786 20.8839 19.3215V36.4861C19.9613 37.3318 19.26 38.4009 18.8443 39.5958C18.4285 40.7907 18.3114 42.0733 18.5036 43.3265C18.6959 44.5797 19.1914 45.7636 19.9449 46.7701C20.6984 47.7766 21.6859 48.5736 22.8172 49.0884C23.9486 49.6032 25.1877 49.8194 26.4215 49.7172C27.6553 49.615 28.8445 49.1977 29.8805 48.5034C30.9165 47.809 31.7663 46.8598 32.3523 45.7424C32.9383 44.625 33.2419 43.3749 33.2352 42.1063C33.2297 41.0446 33.007 39.9959 32.5815 39.0278C32.156 38.0597 31.5372 37.1939 30.765 36.4861V19.3215ZM28.2947 21.8531H25.8244V24.3848H28.2947V26.9164H25.8244V29.4481H28.2947V31.9797H23.3541V19.3215C23.3541 18.65 23.6144 18.0061 24.0777 17.5313C24.5409 17.0566 25.1693 16.7898 25.8244 16.7898C26.4796 16.7898 27.1079 17.0566 27.5712 17.5313C28.0344 18.0061 28.2947 18.65 28.2947 19.3215V21.8531ZM40.6458 21.8531L35.7052 29.448H45.5863L40.6458 21.8531ZM45.5863 34.5112L40.6458 42.1062L35.7052 34.5112H45.5863Z" fill="black"/>
</g>
</svg>
